<?xml version="1.0" encoding="UTF-8"?>
<svg version="1.1" viewBox="0 0 512 262.67" xml:space="preserve" xmlns="http://www.w3.org/2000/svg" xmlns:cc="http://creativecommons.org/ns#" xmlns:dc="http://purl.org/dc/elements/1.1/" xmlns:rdf="http://www.w3.org/1999/02/22-rdf-syntax-ns#"><metadata><rdf:RDF><cc:Work rdf:about=""><dc:format>image/svg+xml</dc:format><dc:type rdf:resource="http://purl.org/dc/dcmitype/StillImage"/></cc:Work></rdf:RDF></metadata><g transform="matrix(1.3333 0 0 -1.3333 0 262.67)"><g transform="scale(.1)"><path d="m1393.5 1578.7c4.68 31.8 20.74 51.49 48.16 59.1 27.42 7.58 56.33 5.82 86.68-5.27 30.04-11.09 51.48-29.02 64.34-53.83 23.04-56.05 17.38-105.82-17.08-149.29-34.41-43.44-84.06-63.91-148.82-61.26-37.07 4.38-70.9 22.31-101.57 53.83-30.62 31.21-48.59 68.71-53.82 112.5-3.21 71.53 16.95 125.47 60.39 161.96 43.79 36.48 95.15 54.72 154.1 54.72 58.94-0.31 109.57-19.57 151.87-57.81 42.62-38.48 60.86-96.99 54.73-175.51-8.44-56.29-24.22-110-47.27-161.09-23.04-51.37-38.82-102.42-47.3-153.2-8.44-50.47 4.69-102.74 39.41-156.72-48.75 49.92-67.11 104.92-55.15 165.04 12.26 60.43 31.95 122.85 59.1 187.34 27.15 64.53 38.67 128.12 34.57 190.86-6.99 48.16-33.83 88.28-80.51 120.39-46.99 32.07-105.08 40-174.26 23.63-49.88-16.33-85.62-48.44-107.22-96.29-21.92-47.89-26.88-96.17-14.89-144.92 11.96-49.02 43.48-83.16 94.54-102.42 55.19-14.02 100.27-5.98 135.27 24.1 35 30.04 54.57 58.95 58.63 86.64 3.83 42.93-6.68 75.9-31.48 98.95-24.81 23.04-53.28 33.4-85.35 31.09-32.43-2.07-58.13-19.57-77.07-52.54" fill="#99857a" fill-rule="evenodd"/><path d="m1802.4 640.16c-62.46-2.351-114.26-15.32-155.39-38.988h142.27c21.56 2.379 45.94 1.918 73.08-1.293 26.88-3.469 45.67 1.293 56.49 14.422 37.34-3.481 59.53-1.723 66.52 5.269 7.31 7.032-10.51 9.489-53.4 7.461-10.82 13.129-29.8 17.93-56.91 14.418-26.84-3.211-51.09-3.64-72.66-1.289m-323.94-13.129c-18.99 10.778-49.18 16.168-90.63 16.168-41.4 0-71.64-5.39-90.58-16.168-11.1-1.801-24.53-1.211-40.28 1.758-15.78 2.621-23.94-2.187-24.53-14.488 48.17-3.172 100.86-7.742 158.05-13.52 56.87-6.172 107.81-1.64 152.73 13.52-29.14-3.172-50.74 1.051-64.76 12.73m466.64 362.89c-30.35 10.198-76.45 15.158-138.32 14.878-61.88-0.31-132.5-0.89-211.88-1.75-54.84 1.17-113.94 3.04-177.26 5.66-63.36 2.93-113.67-0.7-151.02-10.94-37.34-10.5-44.53-34.719-21.44-72.649 12.22-56.922 33.82-104.5 64.76-142.7 30.94-38.242 65.51-72.652 103.75-103.32 44.96-10.782 101.1-16.211 168.52-16.211s123.59 5.429 168.55 16.211c37.35 16.636 69.57 38.398 96.72 65.238 26.84 26.832 55 52.539 84.49 77.031 39.96 9.328 79.5 24.801 118.64 46.399 39.41 21.921 60.27 45.39 62.57 70.468-21.28-23.898-48.71-41.718-82.26-53.398-33.87-11.68-66.88-24.059-98.95-37.18-1.48 57.461 7.15 104.92 25.82 142.26h-12.69m168.08 38.948c54.3-31.8 73.4-61.991 57.35-90.632-16.06-28.277-49.18-56.597-99.38-84.918-49.88-28.32-98.63-57.621-146.17-88.011-47.58-30.618-75.47-63.707-83.63-99.329 46.72 1.168 91.33 0.469 133.94-2.191 42.62-2.617 75.75-14.879 99.38-36.758-7.89-24.531-25.98-38.832-54.3-42.929-28.28-4.063-57.77-6.993-88.4-8.75h-518.28c-49.61 0-99.06 0.308-148.4 0.898-49.33 0.27-86.25 13.012-110.74 38.051 4.96 27.461 22.58 42.179 52.97 44.219 30.31 2.07 60.23 4.531 89.73 7.46 13.12 2.071 28.75 1.598 46.83-1.332 18.09-2.886 28.32 1.911 30.63 14.454-25.08 7.027-44.34 20.16-57.78 39.418-13.12 19.25-28.43 36.32-45.93 51.171-50.2 57.809-71.8 144.18-64.81 259.18h38.99c128.36-1.17 268.32-1.29 419.76-0.47 151.17 0.9 300.59 1.05 448.24 0.47" fill="#9e2163" fill-rule="evenodd"/><path d="m2064.6 986.84c-1.45 0.582-10.35 1.012-26.72 1.32-16.29 0.281-31.21-3.082-44.61-10.07-12.26-9.93-16.95-23.641-14.02-41.141 2.93-17.219 15.47-24.41 37.66-21.437 26.24 7.578 48.86 20.539 67.85 38.937 18.67 18.403 11.95 29.18-20.16 32.391" fill="#fff" fill-rule="evenodd"/><path d="m1781.4 926.45c-5.28-0.898-26.41-8.051-63.48-21.449-37.07-13.441-59.06-27.891-66.09-43.359 2.93-14.301 19.25-23.911 49.02-28.871 30.04-4.961 47.27-7.149 51.64-6.559 1.45 1.168 9.06 9.34 22.77 24.488 13.44 15.16 23.09 30.781 28.87 46.84 5.86 16.051-1.72 25.66-22.73 28.91" fill="#99857a" fill-rule="evenodd"/><path d="m1796.2 1970c56.02-12.54 92.66-45.98 109.88-100.23 17.19-54.26 13.87-111.37-10.08-171.18-27.14-56.6-61.44-112.18-102.89-166.75-41.71-54.89-76.87-114.42-105.5-178.6-28.56-64.49-36.76-139.8-24.46-225.9-26.29 77.66-26.6 148.13-0.9 211.41 25.67 63.09 60.24 122.89 103.75 179.49 43.48 56.33 78.95 112.97 106.37 169.85 27.42 56.6 29.73 117.3 6.99 182.11-9.33 21.01-21.75 38.08-37.18 51.21-15.47 12.85-30.78 29.02-45.98 48.59" fill="#857570" fill-rule="evenodd"/><path d="m1281 986.41c-1.18 1.168-6.25 1.602-15.32 1.32-9.02-0.582-14.18-8.628-15.31-24.101 0.86-15.149 4.49-23.789 10.94-25.82 6.68-2.028 11.52-7.457 14.45-16.207 1.45-9.332 2.62-17.192 3.52-23.633 0.86-6.68 5.23-19.809 13.12-39.379 8.17-23.942 24.38-54.02 48.6-90.192 23.94-35.898 56.75-60.546 98.47-73.949 44.65-11.09 93.09-17.379 145.31-18.859 51.96-1.719 91.92 4.57 119.97 18.859 25.39 15.75 34.14 36.602 26.28 62.582-8.2 25.668-35.19 49.61-81.01 71.758-28.59 14.609-35.43 30.082-20.59 46.41 14.89 16.36 36.92 30.781 66.14 43.352 28.86 12.859 50.03 20.859 63.47 24.07 17.5 5.27 17.19 13.277-0.9 24.059-18.08 10.82-58.36 16.8-120.82 17.968-44.06 0-93.55 0.122-148.39 0.43-54.85 0.313-102.74 0.582-143.56 0.902-40.86 0.27-62.3 0.43-64.37 0.43" fill="#99857a" fill-rule="evenodd"/><path d="m0.039062 2.5391 221.87 492.19c4.692 10.192 7.039 19.719 7.039 28.59 0 12.192-7.969 18.282-23.91 18.282-27.5 0-48.867-13.204-64.059-39.532-15.121-26.371-22.66-55.699-22.66-87.968 0-6.051 0.469-13.243 1.41-21.563-12.191 0-21.492 6.012-27.82 18.121-6.25 12.192-9.3711 25.238-9.3711 39.219 0 29.891 14.762 56.961 44.371 81.25 29.692 24.262 60.391 36.41 92.192 36.41 24.257 0 42.109-11.09 53.597-33.277 11.442-22.192 17.18-63.403 17.18-123.6 0-33.121-2.34-82.961-7.027-149.53-4.692-66.481-7.301-108.55-7.813-126.25 11.25 42.891 32.031 94.922 62.34 156.1 30.32 61.129 56.641 110.15 79.07 147.03 22.379 36.867 41.75 67.418 58.121 91.718 5.2 7.379 9.059 12.692 11.559 15.93 2.582 3.32 5.859 6.25 9.851 8.75 3.942 2.578 8.469 3.91 13.59 3.91 6.559 0 14.059-1.64 22.5-4.84-11.679-28.05-22.191-60.71-31.558-97.968-15.864-61.684-30.434-132.5-43.75-212.5-13.364-80-20-141.02-20-182.97 0-7.5 0.347-13.91 1.09-19.219 0.699-5.3906 1.289-9.3711 1.718-11.871 0.508-2.5781 1.719-6.7187 3.59-12.348 1.879-5.6211 3.289-10.313 4.219-14.063-23.359 0-38.75 5.6211-46.25 16.871-7.5 11.18-11.25 31.68-11.25 61.57 0 35 3.75 75.348 11.25 121.09 7.5 45.7 15.199 85.16 23.133 118.28l35.617 137.97c-29.918-38.359-63.981-99.648-102.18-183.91-38.25-84.18-66.679-153.82-85.32-208.9-5.231-1.8008-8.75-2.6601-10.617-2.6601-11.684 0-19.774 6.8789-24.223 20.629-4.379 13.75-6.559 35.308-6.559 64.68 0 25.629 1.872 75.512 5.622 149.69 3.75 74.257 5.628 123.52 5.628 147.81 0 13.129-0.468 26.18-1.41 39.219l-46.25-107.81-38.441-93.75-32.18-77.808-27.968-65-23.91-51.102c-8.3594-16.871-15.23-30.031-20.621-39.531-5.3203-9.5703-11.18-18.32-17.5-26.25-6.25-8.0078-12.109-13.508-17.5-16.559-5.3203-3.0117-10.789-4.5312-16.41-4.5312zm528.67 110.62c0 26.57 7.699 59.692 23.129 99.379 15.39 39.691 28.199 59.531 38.43 59.531 8.832 0 17.5-4.691 25.941-14.058-9.801-15.313-20.082-37.352-30.781-66.102-10.739-28.672-16.09-53.512-16.09-74.531 0-31.25 8.359-46.867 25.148-46.867 6.024 0 12.422 2.2578 19.223 6.8672 6.758 4.6914 13.629 11.57 20.629 20.633 7.07 9.1363 13.75 18.277 20 27.34 6.32 9.136 13 20.507 20 34.058l18.121 34.219 16.879 33.601c6.012 13.508 10.191 22.18 12.5 25.93 22.5-4.18 33.75-10.23 33.75-18.121 0-1.488-4.031-10.937-12.039-28.437-7.93-17.5-15.742-37.731-23.43-60.622-7.742-22.82-11.57-41.019-11.57-54.531 0-18.68 7.699-27.969 23.129-27.969 15.941 0 35.308 10.348 58.121 31.09 22.898 20.821 42.5 48.282 58.75 82.34l9.219-6.398c-15-37.313-35.93-67.973-62.809-92.032-26.801-23.949-52.77-35.941-77.973-35.941-32.609 0-48.898 17.262-48.898 51.723 0 9.3673 1.601 21.008 4.84 35-32.731-57.813-63.282-86.723-91.719-86.723-15.43 0-28.051 6.8711-37.813 20.621-9.808 13.75-14.687 30.391-14.687 50z" fill="#e10a69"/><path d="m820.9 119.41c0 12.578 2.032 23.211 6.09 31.879 3.992 8.633 8.364 14.449 13.282 17.5 4.89 3.012 10 5.66 15.32 7.973 5.39 2.379 8.789 4.289 10.148 5.777 29.883 32.582 53.012 66.41 69.383 101.41v8.43c0 15.82 2.649 27.699 7.969 35.633 5.39 8.008 11.789 12.027 19.211 12.027 7.5 0 11.25-3.09 11.25-9.219 0-0.941-0.742-4.691-2.18-11.25-1.371-6.48-2.031-12.968-2.031-19.531 0-13.988 6.012-39.84 18.121-77.66 12.187-37.809 18.279-68.117 18.279-90.93 0-12.621-1.4-24.07-4.22-34.379 34.57 6.0197 63.99 32.379 88.28 79.059l6.25-7.027c-16.36-48.051-49.02-75.782-97.96-83.282-14.5-38.629-44.379-57.969-89.692-57.969-30.308 0-52.5 9.1367-66.558 27.348-13.949 18.121-20.942 39.531-20.942 64.211zm31.563 0.789c0-17.738 5.238-33.519 15.777-47.347 10.512-13.75 24.383-20.621 41.563-20.621 21.449 0 36.179 11.441 44.219 34.371-18.75 3.75-35.86 11.098-51.25 22.027-15.309 10.941-26.95 22.973-34.84 36.101-10.309-0.55-15.469-8.71-15.469-24.531zm18.129 46.25c17.262-36.879 46.25-59.769 86.871-68.597 1.879 12.07 2.809 23.007 2.809 32.808 0 13.129-1.211 26.879-3.59 41.25-2.301 14.461-5.59 30.469-9.84 47.969-4.18 17.5-6.961 30-8.289 37.5-23.75-39.18-46.403-69.488-67.961-90.93z" fill="#e10a69"/><path d="m1058.8 88.629c0 27.582 9.65 58.172 28.9 91.723 19.38 33.628 44.46 62.578 75.32 86.878 30.82 24.25 60.66 36.399 89.53 36.399 18.2 0 33.36-4.957 45.47-14.84 12.18-9.809 18.28-22.34 18.28-37.66 0-20.109-11.41-30.149-34.22-30.149 2.27 8.43 3.44 16.598 3.44 24.532 0 26.129-11.41 39.218-34.22 39.218-20.63 0-42.5-11.839-65.63-35.468-23.04-23.563-41.87-50.864-56.56-81.883-14.69-31.051-22.03-57.969-22.03-80.777 0-18.242 6.29-27.34 18.91-27.34 8.32 0 18.04 3.9766 29.21 11.867 11.25 7.8906 21.49 16.762 30.79 26.57 9.37 9.8788 20.46 23.121 33.28 39.68 12.89 16.57 22.38 29.262 28.43 38.133l25.16 36.398c18.75-3.359 28.13-9.18 28.13-17.5 0-3.75-6.8-17.769-20.32-42.031-13.55-24.289-20.31-42.731-20.31-55.309 0-7.9297 1.95-15.082 5.94-21.41 3.94-6.25 9.88-9.3711 17.81-9.3711 13.52 0 30.55 9.6914 51.09 29.062 20.51 19.378 40.82 46.558 60.94 81.558l7.03-7.031c-14.49-37.301-34.92-67.891-61.25-91.719-26.36-23.75-52.15-35.621-77.34-35.621-16.37 0-28.87 4.8007-37.5 14.371-8.67 9.4609-12.97 20.98-12.97 34.539 0 5.6211 0.7 12.379 2.19 20.313-21.06-28.051-39.85-48.524-56.41-61.563-16.56-13.129-33.04-19.688-49.37-19.688-15.43 0-27.89 5.0781-37.35 15.148-9.57 10-14.37 24.301-14.37 42.969z" fill="#e10a69"/><path d="m1584.6 15.199 12.66 29.371c4.14 10.309 9.29 23.59 15.46 39.84l16.72 45.629 21.72 64.371 26.56 77.039 35 102.18 42.04 123.13c6.01 16.758 9.06 28.199 9.06 34.367 0 11.141-5.59 16.723-16.72 16.723-21.06 0-40.78-15.551-59.22-46.563-18.44-31.059-27.66-59.379-27.66-85 0-8.867 1.18-16.801 3.6-23.75-28.05 0-42.03 13.281-42.03 39.84 0 30.32 16.44 60.391 49.37 90.32 32.89 29.879 63.13 44.84 90.63 44.84 21.44 0 32.18-11.211 32.18-33.59 0-8.051-1.87-18.09-5.62-30.16l-58.75-190.47c3.2 4.258 7.27 8.828 12.19 13.75 4.88 4.879 9.22 8.95 12.97 12.192l17.5 13.277 17.5 14.063c35 28.007 70.54 60.386 106.71 97.187 36.14 36.871 64.26 71.441 84.38 103.75 4.14-5.629 6.25-15.937 6.25-30.937 0-50.864-84.92-133.4-254.69-247.65l33.6-56.719c6.01-10.32 16.48-26.371 31.4-48.128 15-21.68 28.44-39.18 40.31-52.5 11.88-13.243 27.39-29.454 46.57-48.59 19.14-19.062 40.39-38.172 63.75-57.352-8.05-15.391-20.43-23.121-37.19-23.121h-0.63c-22.93 0-54.8 30-95.62 90-40.86 60-74.06 118.2-99.69 174.69l-67.97-219.85c-2.3-7.5-5.7-13.668-10.15-18.59-4.38-4.8789-9.96-8.1289-16.72-9.6875-6.8-1.6407-12.42-2.6914-16.88-3.1211-4.37-0.5117-10.58-0.7813-18.59-0.7813z" fill="#e10a69"/><path d="m1974 109.73c0 42.891 13.04 100.97 39.21 174.22 26.14 73.321 56.1 138.2 89.85 194.68 33.83 56.449 60.54 84.691 80.15 84.691 7.5 0 13.21-4.609 17.19-13.75 3.95-9.058 5.94-19.218 5.94-30.468 0-21.872-7.46-50.582-22.34-86.09-14.93-35.434-35.24-70.434-60.94-105-25.63-34.492-51.53-59.653-77.66-75.473-17.3-40.629-25.94-86.641-25.94-137.97 0-7.5 0.47-15.429 1.41-23.75 41.56 120.82 88.91 181.25 142.03 181.25 17.81 0 31.13-6.211 40-18.59 8.83-12.308 13.28-27.109 13.28-44.378 0-15.43-5.08-36.211-15.15-62.34-10-26.172-15-44.614-15-55.313 0-17.738 7.03-26.57 21.09-26.57 15.82 0 34.45 11.102 55.94 33.281 21.44 22.192 39.22 48.442 53.28 78.75l9.06-8.43c-15.43-35.429-35.15-64.609-59.22-87.5-23.98-22.891-49.02-34.379-75.15-34.379-15.43 0-27.35 4.1367-35.78 12.348-8.36 8.1211-12.5 18.75-12.5 31.871 0 9.2577 3.59 26.25 10.78 50.942 7.18 24.758 10.78 43.008 10.78 54.687 0 22.379-8.87 33.59-26.56 33.59-15.43 0-30.28-10.078-44.54-30.16-14.18-20-25.58-42.149-34.21-66.399-8.68-24.3-17.97-46.492-27.97-66.57-10-20-19.46-30-28.28-30-8.44 0-15.4 7.2695-20.79 21.719-5.31 14.461-7.96 31.492-7.96 51.101zm80.46 170c29.89 23.821 58.68 61.559 86.41 113.12 27.81 51.558 41.72 87.578 41.72 108.13 0 3.75-0.94 5.622-2.81 5.622-5.12 0-15.28-10.622-30.47-31.872-15.12-21.25-32.03-50.32-50.78-87.191-18.68-36.879-33.36-72.809-44.07-107.81z" fill="#e10a69"/><path d="m2285.2 88.629c0 27.582 9.64 58.172 28.9 91.723 19.38 33.628 44.45 62.578 75.31 86.878 30.82 24.25 60.67 36.399 89.54 36.399 18.2 0 33.35-4.957 45.46-14.84 12.19-9.809 18.29-22.34 18.29-37.66 0-20.109-11.41-30.149-34.22-30.149 2.26 8.43 3.43 16.598 3.43 24.532 0 26.129-11.4 39.218-34.21 39.218-20.63 0-42.5-11.839-65.63-35.468-23.05-23.563-41.87-50.864-56.56-81.883-14.69-31.051-22.03-57.969-22.03-80.777 0-18.242 6.29-27.34 18.9-27.34 8.32 0 18.05 3.9766 29.22 11.867 11.25 7.8906 21.49 16.762 30.78 26.57 9.38 9.8788 20.47 23.121 33.28 39.68 12.89 16.57 22.39 29.262 28.44 38.133l25.16 36.398c18.75-3.359 28.12-9.18 28.12-17.5 0-3.75-6.79-17.769-20.31-42.031-13.55-24.289-20.31-42.731-20.31-55.309 0-7.9297 1.95-15.082 5.94-21.41 3.94-6.25 9.88-9.3711 17.81-9.3711 13.51 0 30.54 9.6914 51.09 29.062 20.51 19.378 40.82 46.558 60.94 81.558l7.03-7.031c-14.49-37.301-34.92-67.891-61.25-91.719-26.37-23.75-52.15-35.621-77.34-35.621-16.37 0-28.87 4.8007-37.5 14.371-8.68 9.4609-12.97 20.98-12.97 34.539 0 5.6211 0.7 12.379 2.19 20.313-21.06-28.051-39.85-48.524-56.41-61.563-16.56-13.129-33.05-19.688-49.38-19.688-15.43 0-27.89 5.0781-37.34 15.148-9.57 10-14.37 24.301-14.37 42.969z" fill="#e10a69"/><path d="m2608.2 113.16c0 26.57 7.7 59.692 23.13 99.379 15.39 39.691 28.2 59.531 38.44 59.531 3.75 0 8.98-1.41 15.78-4.218 6.75-2.813 10.15-6.09 10.15-9.84-9.8-14.922-20.08-36.961-30.78-66.102-10.74-29.18-16.09-54.019-16.09-74.531 0-31.25 8.16-46.867 24.53-46.867 24.69 0 59.69 44.527 105 133.59 5.51 28.007 9.76 45.507 12.81 52.5 3.13 7.07 8.17 10.628 15.16 10.628 13.51 0 20.31-5.16 20.31-15.468 0-1.371-0.47-3.91-1.41-7.66-13.12-42.5-19.68-91.25-19.68-146.25 0-22.93 5.15-34.371 15.47-34.371 13 0 30.03 14.57 51.09 43.75 21.01 29.141 40.16 62.379 57.34 99.68 0 59.262 11.64 88.91 35 88.91 7.89 0 14.1-2.929 18.6-8.75 4.45-5.859 6.72-11.8 6.72-17.808 0-4.184-2.04-9.922-6.1-17.192-3.98-7.191-8.05-17.191-12.19-30-4.18-12.808-6.25-28.359-6.25-46.558 0-35.551 10.94-53.282 32.82-53.282 20.5 0 38.94 17.258 55.31 51.872l9.22-7.032c-16.88-39.179-40-58.75-69.38-58.75-29.92 0-49.49 19.571-58.75 58.75-19.61-36.371-40.93-67.3-64.06-92.808-23.12-25.391-44.77-38.133-64.84-38.133-25.24 0-37.82 22.66-37.82 67.973 0 16.757 1.65 37.738 5 62.968-41.56-83.05-78.71-124.53-111.4-124.53h-0.63c-14.92 0-27.42 6.8711-37.5 20.621-10 13.75-15 30.391-15 50z" fill="#e10a69"/><path d="m3040.2 113.16c0 26.57 7.7 59.692 23.13 99.379 15.39 39.691 28.2 59.531 38.44 59.531 8.82 0 17.5-4.691 25.93-14.058-9.8-15.313-20.07-37.352-30.78-66.102-10.74-28.672-16.09-53.512-16.09-74.531 0-31.25 8.36-46.867 25.16-46.867 6.01 0 12.42 2.2578 19.21 6.8672 6.76 4.6914 13.64 11.57 20.63 20.633 7.07 9.1363 13.75 18.277 20 27.34 6.33 9.136 13.01 20.507 20 34.058l18.12 34.219 16.88 33.601c6.02 13.508 10.19 22.18 12.5 25.93 22.5-4.18 33.75-10.23 33.75-18.121 0-1.488-4.02-10.937-12.03-28.437-7.93-17.5-15.74-37.731-23.44-60.622-7.73-22.82-11.56-41.019-11.56-54.531 0-18.68 7.69-27.969 23.12-27.969 15.94 0 35.32 10.348 58.13 31.09 22.89 20.821 42.5 48.282 58.75 82.34l9.22-6.398c-15-37.313-35.94-67.973-62.82-92.032-26.79-23.949-52.77-35.941-77.96-35.941-32.62 0-48.91 17.262-48.91 51.723 0 9.3673 1.6 21.008 4.84 35-32.73-57.813-63.28-86.723-91.72-86.723-15.43 0-28.04 6.8711-37.81 20.621-9.8 13.75-14.69 30.391-14.69 50z" fill="#e10a69"/><path d="m3348.5 114.57c0 31.758 9.1 74.102 27.34 127.03 18.2 53.007 39.3 103.17 63.28 150.47 24.06 47.379 48.32 88.481 72.81 123.28 24.57 34.769 42.7 52.187 54.38 52.187 6.44 0 11.91-5.859 16.4-17.5 4.46-11.68 6.72-23.129 6.72-34.379 0-35-19.18-88.359-57.5-160-38.24-71.558-81.17-126.99-128.75-166.25-6.05-26.988-9.06-50.539-9.06-70.621 0-35.937 10.24-53.91 30.78-53.91 17.27 0 34.88 10.941 52.81 32.82 17.89 21.949 33.91 48.352 47.97 79.211l10.47-5.621c-40.12-85.859-83.75-128.75-130.94-128.75h-0.62c-37.42 0-56.09 23.98-56.09 72.031zm60.93 98.75c38.32 38.75 74.26 89.731 107.82 152.97 33.63 63.199 50.46 107.66 50.46 133.28 0 7.5-1.68 11.25-5 11.25-6.48 0-19.37-15.082-38.75-45.16-19.37-30.109-40.27-69.211-62.65-117.34-22.42-48.05-39.69-93.05-51.88-135z" fill="#e10a69"/><path d="m3493.8 88.629c0 27.582 9.65 58.172 28.91 91.723 19.37 33.628 44.45 62.578 75.31 86.878 30.82 24.25 60.66 36.399 89.53 36.399 18.2 0 33.36-4.957 45.47-14.84 12.19-9.809 18.28-22.34 18.28-37.66 0-20.109-11.41-30.149-34.22-30.149 2.27 8.43 3.44 16.598 3.44 24.532 0 26.129-11.41 39.218-34.22 39.218-20.63 0-42.5-11.839-65.63-35.468-23.04-23.563-41.87-50.864-56.56-81.883-14.69-31.051-22.03-57.969-22.03-80.777 0-18.242 6.29-27.34 18.91-27.34 8.32 0 18.04 3.9766 29.22 11.867 11.25 7.8906 21.48 16.762 30.78 26.57 9.37 9.8788 20.47 23.121 33.28 39.68 12.89 16.57 22.38 29.262 28.44 38.133l25.15 36.398c18.75-3.359 28.13-9.18 28.13-17.5 0-3.75-6.8-17.769-20.32-42.031-13.55-24.289-20.31-42.731-20.31-55.309 0-7.9297 1.95-15.082 5.94-21.41 3.94-6.25 9.88-9.3711 17.81-9.3711 13.52 0 30.55 9.6914 51.1 29.062 20.5 19.378 40.82 46.558 60.93 81.558l7.03-7.031c-14.49-37.301-34.92-67.891-61.25-91.719-26.36-23.75-52.14-35.621-77.34-35.621-16.37 0-28.87 4.8007-37.5 14.371-8.67 9.4609-12.97 20.98-12.97 34.539 0 5.6211 0.7 12.379 2.19 20.313-21.06-28.051-39.84-48.524-56.41-61.563-16.56-13.129-33.04-19.688-49.37-19.688-15.43 0-27.89 5.0781-37.35 15.148-9.57 10-14.37 24.301-14.37 42.969z" fill="#e10a69"/><path d="m2057.8 773.05c0.51-4.379 0.63-8.129 0.32-11.25 0 0-0.28-2.352-0.79-7.031-0.23-1.68-0.27-3.872-0.15-6.571 0.19-2.609-0.08-4.488-0.78-5.617-0.63-1.172-1.8-1.883-3.44-2.191-1.56-0.231-2.81-0.121-3.75 0.308-0.94 0.391-1.84 0.86-2.66 1.41-1.87 1.012-3.43 1.129-4.68 0.313-1.25-0.742-2.15-1.871-2.66-3.442-0.43-1.558-0.7-3.359-0.78-5.308-0.31-3.121-0.31-7.113 0-11.871 0.08-1.801 0.08-3.211 0-4.219v-2.66c0-1.871 0.23-3.711 0.78-5.473 0.62-1.789 0.94-3.117 0.94-4.058 0-0.86-0.16-1.52-0.47-2.032-0.24-0.55-0.59-1.019-1.1-1.41-0.43-0.308-0.85-0.617-1.25-0.929-0.42-0.321-0.85-0.711-1.25-1.098-0.43-0.313-0.89-0.703-1.4-1.09 0.51-4.812 0.62-8.602 0.31-11.41-0.31-2.731-0.55-5.082-0.62-7.031 0-1.993-0.47-3.512-1.41-4.532-1.17-1.328-3.52-2.339-7.03-2.968-2.11-0.082-3.6 1.019-4.53 3.281-0.94 2.187-1.37 4.848-1.25 7.969 0.08 3.129 0 5.507-0.32 7.191-0.23 1.637-0.58 3.047-1.09 4.219-0.43 1.25-0.86 2.34-1.25 3.281-0.31 0.938-0.62 2.219-0.94 3.898-0.31 1.649-0.11 3.442 0.63 5.321-1.37 1.558-2.31 3.199-2.81 5-0.55 1.75-0.47 4.058 0.15 6.871 0.71 2.887 1.17 5.508 1.41 7.808 0.19 2.391 0.23 4.571 0.15 6.571-0.23 4.449-1.21 7.07-2.96 7.808-1.49 0.391-2.97 0.039-4.54-1.089-1.56-1.059-2.81-1.719-3.75-2.04-0.85-0.308-1.68-0.109-2.5 0.629-0.85 0.7-1.25 1.563-1.25 2.5 0.08 0.942 0.24 1.95 0.47 3.121 0.32 1.141 0.55 2.231 0.78 3.29 0.32 1.011 0.24 2.07-0.15 3.121-0.43 0.941-0.94 1.558-1.56 1.879-0.55 0.312-1.02 0.781-1.41 1.402-1.33 1.558-1.72 4.297-1.09 8.277 0.62 3.949 1.01 7.192 1.25 9.692 0.31 2.578 0.5 4.531 0.62 5.781 0.2 1.25 0.51 2.348 0.94 3.277 0.51 0.942 1.29 1.801 2.34 2.66 2.38 1.762 5.55 2.379 9.53 1.871 17.89-2.421 28.13-3.242 30.63-2.5 0.94 0.321 1.8 0.629 2.65 0.942 6.65 2.699 10.55-1.25 11.72-11.871zm43.71-78.442 0.16 11.09v3.75c0 2.891-0.31 4.731-0.94 5.473-0.86 1.449-2.18 2.109-4.06 2.027-1.87 0-3.24-0.578-4.06-1.719-0.86-1.05-1.37-2.339-1.56-3.898-0.12-1.562-0.16-3.281-0.16-5.16v-5.942c-0.24-4.289-0.24-7.609 0-10 0.19-2.3 0.19-3.82 0-4.531-0.24-0.621-0.74-1.25-1.56-1.871-0.75-0.629-1.37-1.488-1.88-2.5-0.54-1.058-0.94-2.109-1.25-3.129-1.25-2.5-2.5-3.789-3.75-3.898-3.75-0.391-7.03 1.64-9.84 6.09-0.55 1.129-1.33 2.187-2.35 3.129-1.99 2.179-2.34 5.781-1.09 10.781 0.39 2.379 0.63 4.84 0.63 7.34s-0.08 4.257-0.16 5.308c-0.23 1.02-0.27 2.231-0.16 3.602 0.2 1.328 0.04 2.5-0.47 3.429-0.43 1.02-0.58 2.391-0.46 4.071 0.19 1.64 0.07 3.121-0.32 4.371-0.31 1.25-0.39 2.348-0.15 3.277 0.19 0.942 0.07 1.723-0.32 2.352-0.43 0.621-0.58 1.437-0.46 2.5 0.07 1.129 0.19 2.34 0.31 3.59 0.31 3.519-0.12 6.25-1.25 8.129-1.17 1.871-2.15 3.98-2.97 6.402-0.86 2.5-0.74 5.387 0.31 8.75 1.64 5.199 2.11 10.937 1.41 17.187-0.12 1.563 0.23 3.36 1.09 5.473 1.25 3.199 5.39 5 12.5 5.309 2.19 0.078 4.14 0.39 5.94 0.941 1.87 0.508 3.67 0.508 5.47 0 1.87-0.434 2.89-1.562 3.12-3.441 0.32-1.801 0.55-3.051 0.78-3.75 0.32-0.621 0.51-1.332 0.63-2.032 0.19-1.25 0-3.277-0.63-6.089-0.54-2.821-0.86-5.161-0.93-7.04-0.12-1.871-0.16-3.71-0.16-5.46 0.2-4.301 0-7.348-0.62-9.219-0.55-1.801-0.71-3.129-0.47-4.071 0.19-0.929 0.62-1.679 1.25-2.179 1.87-1.801 4.53-1.641 7.97 0.469 0.5 0.312 0.97 0.82 1.4 1.562-0.54 2.688-0.86 6.008-0.94 10-0.11 6.008-0.31 10.699-0.62 14.059-0.31 3.32-0.27 6.089 0.16 8.281 0.39 2.269 1.44 4.418 3.12 6.41 1.64 1.949 3.16 2.809 4.53 2.5 1.45-0.242 2.66-0.781 3.6-1.723 0.93-0.937 1.75-1.371 2.5-1.25 0.82 0.082 1.91 0.621 3.28 1.563 3.63 2.066 7.03 0.699 10.15-4.063-1.05-0.937-1.36-2.738-0.93-5.308 0.5-2.621 0.62-4.5 0.31-5.629-0.31-1.051-0.55-2.621-0.63-4.692-0.11-1.992-0.23-3.898-0.31-5.781 0-1.789-0.23-4.179-0.62-7.179-0.75-4.301-0.86-9.18-0.32-14.688 0.63-5.434 0.71-10.312 0.32-14.691-0.32-4.371-0.43-8.051-0.32-10.942 0.2-2.929 0.16-4.918-0.15-5.929-0.32-0.938-0.71-1.879-1.1-2.821-1.48-2.929-2.3-5.859-2.5-8.75-0.23-2.418-0.39-4.801-0.47-7.179-0.11-2.43-0.31-4.54-0.62-6.411-0.94-4.179-2.97-6.25-6.09-6.25-3.44 0-5.43 2.661-5.94 7.969-2.31 0.703-4.18 1.91-5.63 3.594-1.36 1.637-1.95 4.449-1.72 8.437z" fill="#e10a69"/><path d="m2139.4 703.67-0.15 7.5c0 1.328 0.04 2.578 0.15 3.75 0.08 1.328 0 2.887-0.31 4.687-0.55 3.2-0.78 5.551-0.78 7.032 0.08 1.558 0.08 2.808 0 3.75 0 0.941-0.12 1.8-0.31 2.66-0.24 1.129-0.9 2.969-2.03 5.469-1.18 2.57-1.72 5.351-1.72 8.281 0 2.89 0.62 5.23 1.87 7.031 1.25 1.758 1.72 3.508 1.41 5.309-0.31 1.879-0.59 3.828-0.78 5.941-0.12 2.188-0.12 4.367 0 6.559 0.08 2.191 0.54 4.3 1.4 6.41 2.19 4.879 6.49 7.258 12.97 7.179 3.95-0.109 7.38-0.539 10.31-1.25 3.01-0.742 5.2-1.05 6.57-0.929 1.33 0.07 3.43 0.621 6.25 1.558 4.06 1.563 7.34 1.442 9.84-0.308 0.63-0.551 1.25-0.903 1.88-1.102 0.7-0.23 1.28-0.578 1.71-1.09 1.65-1.879 2.19-5.937 1.57-12.187-0.24-1.871-0.43-3.75-0.63-5.621-0.55-4.379-0.55-7.66 0-9.852 0.51-2.109 0.78-3.98 0.78-5.617 0.08-1.562 0.04-2.973-0.15-4.223-0.63-2.808-1.8-4.218-3.44-4.218-1.48 0.078-2.5 0.55-3.13 1.41-0.62 0.82-1.17 1.719-1.56 2.648-0.43 1.02-0.86 1.961-1.25 2.821-0.43 0.82-1.37 1.25-2.81 1.25-4.3 0-7.15 0.46-8.59 1.402-1.49 0.937-2.74 1.449-3.75 1.558-1.06 0.2-2.11 0.079-3.13-0.308-1.99-0.863-3.2-2.461-3.59-4.84-0.32-2.312-0.55-4.344-0.63-6.102-0.12-1.789-0.12-3.39 0-4.839 0.2-3.442 0.86-5.391 2.03-5.782 1.14-0.429 2.07-0.468 2.82-0.16 0.82 0.321 1.6 0.711 2.34 1.25 2.38 1.571 4.77 2.27 7.19 2.192 2.5 0 4.37-1.012 5.62-2.969 1.25-1.992 1.76-3.871 1.56-5.621-0.23-1.801-0.43-3.563-0.62-5.321-0.12-1.789-0.27-3.429-0.47-5-1.48-6.05-4.34-7.261-8.59-3.589-5.55 0.39-8.99-0.27-10.32-2.032-0.31-0.429-0.62-1.41-0.93-2.968-0.32-1.559-0.39-3.243-0.16-5 0.51-4.61 2.7-7.032 6.56-7.34 2.58-0.242 4.93 0.07 7.03 0.929 2.07 0.942 3.44 1.918 4.07 2.969 0.62 1.141 1.33 1.762 2.18 1.883 0.94 0.188 1.72 0.348 2.35 0.469 0.7 0.187 1.4 0.308 2.03 0.308 0.7 0 1.44-0.121 2.19-0.308 1.75-0.551 2.81-1.879 3.12-4.071 0.31-2.179 0.04-4.179-0.78-5.929-0.74-1.68-1.21-3.25-1.41-4.692-0.23-1.488-0.43-2.578-0.62-3.281-0.23-0.629-0.78-1.488-1.72-2.5-0.94-0.937-1.68-1.797-2.19-2.5-0.54-0.707-1.4-0.547-2.65 0.473-2.11 1.64-4.65 0.66-7.66-2.973-0.86-1.019-1.72-1.797-2.66-2.348-0.85-0.5-2.14-0.699-3.9-0.621-1.88 0.121-3.4 0.621-4.53 1.563-1.06 0.859-2 1.68-2.82 2.5-1.48 1.879-4.02 2.578-7.65 2.187-2.19-0.308-3.99 0.551-5.31 2.661-0.32 0.308-0.55 0.82-0.63 1.558-0.12 0.82-0.27 1.762-0.47 2.813-0.74 2.5-1.37 4.097-1.87 4.839-0.55 0.711-0.86 1.641-0.94 2.821 0 1.25-0.12 2.5-0.31 3.75-0.24 1.328-0.39 2.34-0.47 2.969-0.12 0.621-0.08 1.32 0.15 2.179 0.32 0.942 0.47 1.922 0.47 2.973z" fill="#e10a69"/><path d="m2232.3 752.73-0.63 12.192c0 2.066-0.08 4.258-0.16 6.558-0.43 5.942-0.07 9.219 1.1 9.852 1.01 0.617 1.76 1.25 2.19 1.867 0.5 0.711 1.01 1.102 1.56 1.102h2.5c1.13 0.078 2.34 0.078 3.59 0 3.01-0.242 5.04-0.711 6.1-1.41 1.01-0.621 2.18-1.051 3.43-1.25 1.25-0.231 2.5-0.391 3.75-0.469h3.75c1.25 0.078 2.35 0.16 3.28 0.16 0.94 0 1.57-0.121 1.88-0.312 1.13-0.43 2.11-0.629 2.97-0.629 0.82 0.078 1.6-0.27 2.34-1.09 0.82-0.75 1.33-1.371 1.56-1.879 0.32-0.434 1.25-0.742 2.82-0.942 1.64-0.23 3-0.39 4.06-0.46 1.13-0.122 2.23-0.59 3.28-1.411 1.13-0.738 2.03-1.211 2.66-1.41 0.7-0.23 1.48-0.898 2.34-2.027 0.82-1.051 1.33-1.832 1.56-2.34 0.32-0.434 0.51-1.211 0.63-2.352 0.08-2.808 0.78-4.839 2.03-6.089s1.91-2.5 2.03-3.75c0.2-1.172 0.35-2.5 0.47-4.059 0.08-1.562 0.23-3.523 0.47-5.781 0.31-2.313-0.16-4.852-1.41-7.66-1.25-2.731-2.5-4.653-3.75-5.782-1.17-1.058-2.15-2.339-2.97-3.91-0.74-1.48-1.32-3.117-1.72-5-0.31-1.867-1.32-3.828-2.96-5.777-1.18-1.371-2.04-2.192-2.66-2.5-0.63-0.313-1.25-0.621-1.88-0.942-0.54-0.308-1.21-0.781-2.03-1.398-0.74-0.551-1.64-0.941-2.65-1.25-2.42-1.25-4.5-1.531-6.25-0.781-1.06-0.551-2.11-0.903-3.13-1.102-1.05-0.109-2.11-0.269-3.12-0.469-2.31-0.851-3.56-2.179-3.75-4.058-0.24-1.871 0-3.832 0.62-5.781 0.63-1.871 0.98-3.512 1.1-4.84 0.39-4.379-0.71-8.211-3.29-11.41-1.68-1.993-2.77-4.063-3.28-6.25-0.43-2.192-1.25-3.672-2.5-4.532-2.18-1.949-4.29-1.48-6.25 1.411-0.31 0.23-0.93 0.582-1.87 1.089-1.37 0.821-2.27 2.071-2.66 3.75-0.31 1.641-0.47 3.36-0.47 5.161 0 1.75-0.15 3.429-0.47 5-0.23 1.562-0.54 3.199-0.93 5-0.94 4.761-1.41 8.039-1.41 9.839v5.313c0 1.879 0.24 3.519 0.78 5 0.51 1.558 0.7 2.539 0.63 2.969-0.12 0.507 0 1.089 0.31 1.718 0.31 0.621 0.62 1.411 0.94 2.34 0.39 0.942 0.7 1.883 0.93 2.821 0.39 2.07-0.15 3.82-1.71 5.312-1.8 1.637-2.66 3.438-2.66 5.309v0.781c0.31 3.316 0.35 5.629 0.16 6.879-0.86 3.199-1.25 6.437-1.25 9.679zm23.43-6.71c0.2-0.43 0.35-1.02 0.47-1.719 0.2-0.75 0.35-1.801 0.47-3.129 0.2-1.371 0.2-2.813 0-4.371-0.12-1.492-0.23-2.821-0.31-4.071-0.24-3.242 0.19-5.07 1.25-5.46 1.01-0.43 2.73 0.929 5.15 4.062 2.7 3.117 4.89 7.027 6.57 11.719 0.93 2.379 0.97 4.14 0.15 5.308-1.68 1.95-2.34 3.75-2.03 5.313 0.08 0.078 0.08 0.348 0 0.777-0.23 0.199-0.47 0.473-0.78 0.781-0.23 0.321-0.62 0.629-1.25 0.942-2.19 0.816-4.22 0.816-6.09 0-1.8-0.863-2.93-2.031-3.44-3.59-0.55-1.562-0.78-2.781-0.78-3.602 0.08-0.859 0.15-1.398 0.15-1.71 0.08-0.321 0.24-0.75 0.47-1.25z" fill="#e10a69"/><path d="m2312.3 777.27c1.02 0.929 1.92 1.949 2.66 3.121 0.82 1.129 1.88 2.191 3.12 3.129 3.44 2.812 6.88 3.628 10.32 2.5 4.14-1.571 7.97-2.579 11.4-2.969 3.52-0.321 6.1-1.211 7.66-2.66 1.64-1.371 3.12-2.809 4.38-4.371 2.81-3.68 4.45-7.661 5-12.04 0.07-1.679 0.39-2.89 0.93-3.589 1.25-2.192 1.64-5.121 1.25-8.75-0.43-3.551-0.58-6.051-0.47-7.5 0.2-1.371 0.47-2.422 0.79-3.121 0.31-0.629 0.62-1.329 0.93-2.04 0.82-1.871 1.25-3.71 1.25-5.46 0-2.43-0.78-4.77-2.34-7.04-0.74-0.929-1.02-2.73-0.78-5.308 0.19-2.5 0.35-5 0.47-7.5 0.07-6.371-0.28-10.313-1.1-11.871-0.74-1.492-1.33-2.352-1.72-2.66-0.31-0.309-0.62-0.551-0.93-0.621-1.49-0.75-2.78-2.821-3.91-6.25-1.05-3.36-2.5-6.059-4.37-8.129-1.88-2.11-3.83-3.832-5.79-5.161-1.99-1.25-3.55-2.261-4.68-2.96-1.18-0.711-2-1.45-2.5-2.192-0.43-0.707-0.9-1.406-1.41-2.027-1.25-1.571-2.89-2.352-4.84-2.352-3.36 0-5.78 0.781-7.35 2.352-0.62 0.859-1.36 2.109-2.19 3.75-1.48 2.687-3.39 4.879-5.78 6.558-2.81 1.762-4.49 4.532-5 8.282-0.31 1.25-0.43 2.5-0.31 3.75 0.2 1.328 0.16 2.968-0.15 4.839-0.24 1.961-0.63 3.75-1.26 5.321-0.54 1.558-0.85 3-0.93 4.371-0.55 4.137-1.88 6.328-4.07 6.558-1.67 0.2-2.65 2.7-2.96 7.5-0.12 2.5-0.08 4.852 0.15 7.04 0.31 2.179 0.71 4.062 1.25 5.621 0.82 2.808 1.1 6.089 0.78 9.839-0.31 3.75-0.31 7.071 0 10 0.51 5.508 1.64 10 3.44 13.442 0.94 1.449 2.23 2.887 3.91 4.379 1.76 1.437 3.47 2.847 5.15 4.219zm9.22-41.879c0.2-1.371 0.67-2.461 1.41-3.282 0.7-0.859 1.25-2.148 1.56-3.91 0.39-1.789 0.55-3.711 0.47-5.777-0.12-2.113-0.16-4.141-0.16-6.09 0-1.883 0.08-3.602 0.32-5.16 0.19-1.481 0.5-2.813 0.93-4.063 1.02-3.05 2.54-4.527 4.53-4.527 3.01 0 5.08 5.816 6.26 17.5 0.39 3.199 0.62 7.34 0.62 12.34 0 5.078-0.78 9.457-2.34 13.129-1.57 3.629-3.52 5.469-5.78 5.469-2.11 0-4.03-2.43-5.79-7.188-1.56-4.301-2.26-7.113-2.03-8.441z" fill="#e10a69"/><path d="m2385 673.98c-1.37 0.122-2.77 1.571-4.22 4.379-1.48 2.813-2.46 6.411-2.97 10.782-0.54 4.449-0.9 7.5-1.09 9.058-0.24 1.571-0.43 2.699-0.63 3.442-0.23 1.449-0.74 2.738-1.56 3.91-0.86 1.129-1.37 1.949-1.56 2.5-0.24 0.929-0.27 3.16-0.16 6.719 0.2 7.5-0.15 12.421-1.09 14.839-0.31 1.129-0.47 2.032-0.47 2.661 0.08 0.699 0.08 1.441 0 2.179 0 0.821-0.27 1.641-0.78 2.5-0.43 0.942-0.9 1.961-1.41 3.133-1.56 3.117-2.34 5.227-2.34 6.398 0 1.45 0.51 3.129 1.56 5 2.07 3.641 3.28 6.141 3.6 7.5 0.39 1.45 0.54 3.29 0.46 5.469v6.723c-0.23 5.707 0.24 9.297 1.41 10.777 0.82 0.711 1.76 1.25 2.81 1.571 1.14 0.312 2.5 0.781 4.06 1.402 3.33 1.129 5.83 1.719 7.5 1.719 1.76 0 3.17-0.469 4.22-1.411 1.02-0.929 2.23-1.519 3.6-1.71 1.33-0.122 2.26-0.122 2.81 0 0.51 0.191 0.98 0.351 1.41 0.46 1.13 0.508 2.11 0.79 2.96 0.79 1.26 0 2.11-0.551 2.66-1.571 0.63-0.929 1.17-1.719 1.72-2.34 0.51-0.629 1.29-0.859 2.34-0.629 1.14 0.321 2.04 0.469 2.66 0.469h1.41c1.44-0.109 2.73-0.078 3.9 0.16 2.07 0.7 3.75 0.391 5-0.937 0.2-0.742 0.82-1.25 1.88-1.563 1.13-0.238 2.07-0.589 2.81-1.089 1.88-0.938 3.16-2.661 3.91-5.161 1.32-4.488 1.56-9.14 0.62-13.91-0.43-1.679-0.78-3.039-1.09-4.058-0.24-0.942-0.43-1.801-0.63-2.5-0.11-0.743-0.23-1.481-0.31-2.192 0-0.617-0.08-1.48-0.16-2.5v-3.117-3.91c0-3.043 0.08-5.434 0.32-7.192 0.62-4.921-1.57-8.429-6.57-10.621-1.68-0.629-2.81-1.25-3.43-1.879-0.75-0.539-1.37-1.398-1.88-2.648-0.43-1.172-1.33-2.621-2.66-4.383-1.36-1.789-3.39-3.199-6.09-4.219-2.62-0.929-4.92-1.789-6.87-2.5-2-0.621-3.21-1.48-3.6-2.5-0.74-1.25-0.94-4.289-0.62-9.058 0.39-4.692 0.54-7.652 0.47-8.902-0.12-1.25-0.28-2.309-0.47-3.129-0.24-0.86-0.71-1.52-1.41-2.032-0.86-0.55-1.56-0.781-2.19-0.781-0.54 0-1.09-0.308-1.72-0.937-0.62-0.551-1.21-1.09-1.71-1.719-0.55-0.543-1.06-1.051-1.57-1.563-1.48-1.25-3.08-1.879-4.84-1.879zm9.84 82.04c-0.54-0.629-1.09-2.348-1.72-5.161-0.54-2.808-0.78-5.078-0.78-6.718 0-1.68 0.32-3.2 0.94-4.532 0.7-1.25 1.02-2.308 0.94-3.129 0-0.859-0.12-1.71-0.31-2.648-0.12-0.941-0.16-1.883-0.16-2.812-0.23-2.43-0.08-3.911 0.47-4.54 0.62-0.539 1.29-0.742 2.03-0.621 0.7 0.192 1.45 0.473 2.19 0.782 0.82 0.39 1.56 0.82 2.18 1.25 0.71 0.507 1.41 0.82 2.04 0.941 0.62 0.188 1.01 0.656 1.25 1.398 0.31 0.711 0.78 1.29 1.4 1.719 0.71 0.512 1.17 1.172 1.41 2.031 0.19 0.821 0.39 1.719 0.62 2.661 0.32 0.941 0.32 1.8 0 2.66-0.31 0.82-0.86 2.07-1.56 3.75-0.62 1.558-0.86 2.847-0.62 3.898 0.82 4.071 0.35 6.883-1.41 8.442-2.3 1.328-4.22 1.91-5.78 1.718-1.49-0.121-2.5-0.468-3.13-1.089z" fill="#e10a69"/><path d="m2442.1 703.67-0.16 7.5c0 1.328 0.04 2.578 0.16 3.75 0.08 1.328 0 2.887-0.31 4.687-0.55 3.2-0.78 5.551-0.78 7.032 0.07 1.558 0.07 2.808 0 3.75 0 0.941-0.12 1.8-0.32 2.66-0.23 1.129-0.89 2.969-2.03 5.469-1.17 2.57-1.72 5.351-1.72 8.281 0 2.89 0.63 5.23 1.88 7.031 1.25 1.758 1.72 3.508 1.41 5.309-0.32 1.879-0.59 3.828-0.79 5.941-0.11 2.188-0.11 4.367 0 6.559 0.08 2.191 0.55 4.3 1.41 6.41 2.19 4.879 6.48 7.258 12.97 7.179 3.94-0.109 7.38-0.539 10.31-1.25 3.01-0.742 5.2-1.05 6.56-0.929 1.33 0.07 3.44 0.621 6.25 1.558 4.07 1.563 7.35 1.442 9.85-0.308 0.62-0.551 1.25-0.903 1.87-1.102 0.71-0.23 1.29-0.578 1.72-1.09 1.64-1.879 2.19-5.937 1.56-12.187-0.23-1.871-0.43-3.75-0.62-5.621-0.55-4.379-0.55-7.66 0-9.852 0.51-2.109 0.78-3.98 0.78-5.617 0.08-1.562 0.04-2.973-0.16-4.223-0.62-2.808-1.79-4.218-3.43-4.218-1.49 0.078-2.5 0.55-3.13 1.41-0.62 0.82-1.17 1.719-1.56 2.648-0.43 1.02-0.86 1.961-1.25 2.821-0.43 0.82-1.37 1.25-2.81 1.25-4.3 0-7.15 0.46-8.6 1.402-1.48 0.937-2.73 1.449-3.75 1.558-1.05 0.2-2.11 0.079-3.12-0.308-1.99-0.863-3.21-2.461-3.6-4.84-0.31-2.312-0.54-4.344-0.62-6.102-0.12-1.789-0.12-3.39 0-4.839 0.19-3.442 0.86-5.391 2.03-5.782 1.13-0.429 2.07-0.468 2.81-0.16 0.82 0.321 1.6 0.711 2.35 1.25 2.38 1.571 4.76 2.27 7.18 2.192 2.5 0 4.38-1.012 5.63-2.969 1.25-1.992 1.76-3.871 1.56-5.621-0.23-1.801-0.43-3.563-0.62-5.321-0.12-1.789-0.28-3.429-0.47-5-1.49-6.05-4.34-7.261-8.6-3.589-5.54 0.39-8.98-0.27-10.31-2.032-0.31-0.429-0.62-1.41-0.94-2.968-0.31-1.559-0.39-3.243-0.15-5 0.51-4.61 2.69-7.032 6.56-7.34 2.58-0.242 4.92 0.07 7.03 0.929 2.07 0.942 3.44 1.918 4.06 2.969 0.63 1.141 1.33 1.762 2.19 1.883 0.94 0.188 1.72 0.348 2.35 0.469 0.7 0.187 1.4 0.308 2.03 0.308 0.7 0 1.44-0.121 2.18-0.308 1.76-0.551 2.82-1.879 3.13-4.071 0.31-2.179 0.04-4.179-0.78-5.929-0.74-1.68-1.21-3.25-1.41-4.692-0.23-1.488-0.43-2.578-0.62-3.281-0.24-0.629-0.78-1.488-1.72-2.5-0.94-0.937-1.68-1.797-2.19-2.5-0.55-0.707-1.41-0.547-2.66 0.473-2.11 1.64-4.64 0.66-7.65-2.973-0.86-1.019-1.72-1.797-2.66-2.348-0.86-0.5-2.15-0.699-3.9-0.621-1.88 0.121-3.4 0.621-4.54 1.563-1.05 0.859-1.99 1.68-2.81 2.5-1.48 1.879-4.02 2.578-7.65 2.187-2.19-0.308-3.99 0.551-5.32 2.661-0.31 0.308-0.54 0.82-0.62 1.558-0.12 0.82-0.28 1.762-0.47 2.813-0.74 2.5-1.37 4.097-1.88 4.839-0.54 0.711-0.86 1.641-0.93 2.821 0 1.25-0.12 2.5-0.32 3.75-0.23 1.328-0.39 2.34-0.46 2.969-0.12 0.621-0.08 1.32 0.15 2.179 0.31 0.942 0.47 1.922 0.47 2.973z" fill="#e10a69"/><path d="m2548.5 777.27c1.01 0.929 1.91 1.949 2.65 3.121 0.82 1.129 1.88 2.191 3.13 3.129 3.44 2.812 6.87 3.628 10.31 2.5 4.14-1.571 7.97-2.579 11.41-2.969 3.51-0.321 6.09-1.211 7.65-2.66 1.64-1.371 3.13-2.809 4.38-4.371 2.81-3.68 4.45-7.661 5-12.04 0.08-1.679 0.39-2.89 0.94-3.589 1.25-2.192 1.64-5.121 1.25-8.75-0.43-3.551-0.59-6.051-0.47-7.5 0.19-1.371 0.47-2.422 0.78-3.121 0.31-0.629 0.62-1.329 0.94-2.04 0.82-1.871 1.25-3.71 1.25-5.46 0-2.43-0.79-4.77-2.35-7.04-0.74-0.929-1.01-2.73-0.78-5.308 0.2-2.5 0.35-5 0.47-7.5 0.08-6.371-0.27-10.313-1.09-11.871-0.75-1.492-1.33-2.352-1.72-2.66-0.32-0.309-0.63-0.551-0.94-0.621-1.49-0.75-2.77-2.821-3.91-6.25-1.05-3.36-2.5-6.059-4.37-8.129-1.88-2.11-3.83-3.832-5.78-5.161-2-1.25-3.56-2.261-4.69-2.96-1.17-0.711-1.99-1.45-2.5-2.192-0.43-0.707-0.9-1.406-1.41-2.027-1.25-1.571-2.89-2.352-4.84-2.352-3.36 0-5.78 0.781-7.34 2.352-0.63 0.859-1.37 2.109-2.19 3.75-1.49 2.687-3.4 4.879-5.78 6.558-2.82 1.762-4.5 4.532-5 8.282-0.32 1.25-0.43 2.5-0.32 3.75 0.2 1.328 0.16 2.968-0.15 4.839-0.24 1.961-0.63 3.75-1.25 5.321-0.55 1.558-0.86 3-0.94 4.371-0.55 4.137-1.87 6.328-4.06 6.558-1.68 0.2-2.66 2.7-2.97 7.5-0.12 2.5-0.08 4.852 0.16 7.04 0.31 2.179 0.7 4.062 1.25 5.621 0.82 2.808 1.09 6.089 0.78 9.839-0.32 3.75-0.32 7.071 0 10 0.5 5.508 1.64 10 3.43 13.442 0.94 1.449 2.23 2.887 3.91 4.379 1.76 1.437 3.48 2.847 5.16 4.219zm9.22-41.879c0.19-1.371 0.66-2.461 1.4-3.282 0.7-0.859 1.25-2.148 1.56-3.91 0.39-1.789 0.55-3.711 0.47-5.777-0.11-2.113-0.15-4.141-0.15-6.09 0-1.883 0.07-3.602 0.31-5.16 0.19-1.481 0.51-2.813 0.94-4.063 1.01-3.05 2.54-4.527 4.53-4.527 3.01 0 5.08 5.816 6.25 17.5 0.39 3.199 0.62 7.34 0.62 12.34 0 5.078-0.78 9.457-2.34 13.129-1.56 3.629-3.52 5.469-5.78 5.469-2.11 0-4.03-2.43-5.78-7.188-1.57-4.301-2.27-7.113-2.03-8.441z" fill="#e10a69"/><path d="m2630.4 735.23c0-2.73 1.45-4.058 4.38-4.058 0.62 0 1.17 0.039 1.71 0.16 0.63 0.078 1.64 0.309 3.13 0.617 1.44 0.321 2.73 0.039 3.91-0.777 1.25-0.863 2.18-1.481 2.81-1.871 0.62-0.321 1.13-0.75 1.56-1.25 0.7-0.942 1.02-2.621 0.94-5 0-2.313-0.55-4.5-1.56-6.571-0.94-1.992-3.13-3.242-6.57-3.75-3.43-0.429-6.05-1.171-7.81-2.179-1.68-0.942-2.66-2.582-2.97-4.852-0.31-2.179-0.74-3.75-1.25-4.679-0.55-0.86-0.78-1.801-0.78-2.821-0.12-1.168-0.43-2.34-0.94-3.59-0.43-1.168-0.58-2.308-0.47-3.437 0.2-1.051 0.24-2.461 0.16-4.223 0-1.789-0.27-3.551-0.78-5.308-1.17-4.371-3.24-6.563-6.25-6.563-1.17 0-2.03 0.621-2.66 1.871-0.62 1.25-1.21 2.699-1.72 4.379-0.43 1.641-0.85 3.363-1.25 5.152-0.43 1.879-1.25 3.79-2.5 5.79-1.17 2.07-1.83 4.371-2.03 6.871-0.11 2.578-0.15 5.078-0.15 7.5v7.031c0 8.629-0.94 13.988-2.82 16.098-1.36 1.25-1.95 3.671-1.71 7.339v4.063c0 1.449 0.23 2.66 0.78 3.598 1.13 2.5 1.44 6.011 0.93 10.621-0.54 4.57-1.05 8.129-1.56 10.629-0.43 2.5-0.43 4.839 0 7.031 0.39 2.258 0.67 4.058 0.78 5.308 0.2 1.332 0.71 2.582 1.57 3.75 0.82 1.129 1.56 1.762 2.18 1.871 0.63 0.2 1.33 0.239 2.19 0.161 1.25-0.121 2.27 0.238 3.13 1.089 3.2 3.211 6.25 3.989 9.06 2.352 1.13-0.863 2.34-1.723 3.59-2.66 1.25-0.863 2.58-1.641 4.06-2.34 1.45-0.633 3.13-0.863 5-0.633 1.96 0.199 3.83 0.473 5.63 0.781 1.87 0.391 3.75 0.508 5.62 0.321 4.69-0.242 8.13-2.352 10.32-6.41 1.44-2.731 1.95-5.59 1.56-8.59-0.31-2.93-0.63-5.321-0.94-7.192-0.23-1.879-0.31-3.437-0.31-4.687 0-1.172-0.08-1.871-0.16-2.192-0.11-0.308-0.23-0.582-0.31-0.781-0.43-1.051-0.7-2.5-0.78-4.367-0.12-1.883-0.31-3.242-0.63-4.062-0.86-2.309-2.57-3.438-5.15-3.438-1.56 0-2.97 0.309-4.22 0.938-2.31 1.128-3.99 1.75-5 1.871-1.37 0.199-2.27 0.98-2.66 2.339-0.23 0.508-0.43 1.02-0.62 1.571-0.24 0.5-0.55 0.969-0.94 1.398-0.43 0.391-0.86 0.981-1.25 1.723-0.43 0.816-1.33 1.129-2.66 0.937-2.73-0.429-3.98-1.988-3.75-4.687l0.16-8.59z" fill="#e10a69"/><path d="m2700.1 752.73-0.63 12.192c0 2.066-0.08 4.258-0.15 6.558-0.43 5.942-0.08 9.219 1.09 9.852 1.02 0.617 1.76 1.25 2.19 1.867 0.5 0.711 1.01 1.102 1.56 1.102h2.5c1.13 0.078 2.34 0.078 3.59 0 3.01-0.242 5.04-0.711 6.1-1.41 1.01-0.621 2.18-1.051 3.43-1.25 1.25-0.231 2.5-0.391 3.75-0.469h3.75c1.25 0.078 2.35 0.16 3.29 0.16 0.93 0 1.56-0.121 1.87-0.312 1.13-0.43 2.11-0.629 2.97-0.629 0.82 0.078 1.6-0.27 2.34-1.09 0.82-0.75 1.33-1.371 1.57-1.879 0.31-0.434 1.25-0.742 2.81-0.942 1.64-0.23 3.01-0.39 4.06-0.46 1.13-0.122 2.23-0.59 3.28-1.411 1.13-0.738 2.03-1.211 2.66-1.41 0.7-0.23 1.48-0.898 2.34-2.027 0.82-1.051 1.33-1.832 1.56-2.34 0.32-0.434 0.51-1.211 0.63-2.352 0.08-2.808 0.78-4.839 2.03-6.089s1.91-2.5 2.03-3.75c0.2-1.172 0.35-2.5 0.47-4.059 0.08-1.562 0.24-3.523 0.47-5.781 0.31-2.313-0.16-4.852-1.41-7.66-1.25-2.731-2.5-4.653-3.75-5.782-1.17-1.058-2.14-2.339-2.97-3.91-0.74-1.48-1.32-3.117-1.71-5-0.32-1.867-1.33-3.828-2.97-5.777-1.17-1.371-2.03-2.192-2.66-2.5-0.62-0.313-1.25-0.621-1.87-0.942-0.55-0.308-1.22-0.781-2.04-1.398-0.74-0.551-1.64-0.941-2.65-1.25-2.42-1.25-4.49-1.531-6.25-0.781-1.06-0.551-2.11-0.903-3.13-1.102-1.05-0.109-2.11-0.269-3.12-0.469-2.31-0.851-3.56-2.179-3.75-4.058-0.24-1.871 0-3.832 0.62-5.781 0.63-1.871 0.98-3.512 1.1-4.84 0.39-4.379-0.71-8.211-3.28-11.41-1.68-1.993-2.78-4.063-3.29-6.25-0.43-2.192-1.25-3.672-2.5-4.532-2.18-1.949-4.29-1.48-6.25 1.411-0.31 0.23-0.93 0.582-1.87 1.089-1.37 0.821-2.27 2.071-2.66 3.75-0.31 1.641-0.47 3.36-0.47 5.161 0 1.75-0.15 3.429-0.46 5-0.24 1.562-0.55 3.199-0.94 5-0.94 4.761-1.41 8.039-1.41 9.839v5.313c0 1.879 0.24 3.519 0.78 5 0.51 1.558 0.71 2.539 0.63 2.969-0.12 0.507 0 1.089 0.31 1.718 0.31 0.621 0.63 1.411 0.94 2.34 0.39 0.942 0.7 1.883 0.94 2.821 0.39 2.07-0.16 3.82-1.72 5.312-1.8 1.637-2.66 3.438-2.66 5.309v0.781c0.31 3.316 0.35 5.629 0.16 6.879-0.86 3.199-1.25 6.437-1.25 9.679zm23.43-6.71c0.2-0.43 0.36-1.02 0.47-1.719 0.2-0.75 0.36-1.801 0.47-3.129 0.2-1.371 0.2-2.813 0-4.371-0.11-1.492-0.23-2.821-0.31-4.071-0.23-3.242 0.2-5.07 1.25-5.46 1.02-0.43 2.73 0.929 5.16 4.062 2.69 3.117 4.88 7.027 6.56 11.719 0.94 2.379 0.97 4.14 0.15 5.308-1.68 1.95-2.34 3.75-2.03 5.313 0.08 0.078 0.08 0.348 0 0.777-0.23 0.199-0.47 0.473-0.78 0.781-0.23 0.321-0.62 0.629-1.25 0.942-2.19 0.816-4.22 0.816-6.09 0-1.8-0.863-2.93-2.031-3.44-3.59-0.55-1.562-0.78-2.781-0.78-3.602 0.08-0.859 0.16-1.398 0.16-1.71 0.07-0.321 0.23-0.75 0.46-1.25z" fill="#e10a69"/><path d="m2780.2 777.27c1.02 0.929 1.92 1.949 2.66 3.121 0.82 1.129 1.88 2.191 3.13 3.129 3.43 2.812 6.87 3.628 10.31 2.5 4.14-1.571 7.97-2.579 11.4-2.969 3.52-0.321 6.1-1.211 7.66-2.66 1.64-1.371 3.13-2.809 4.38-4.371 2.81-3.68 4.45-7.661 5-12.04 0.07-1.679 0.39-2.89 0.93-3.589 1.25-2.192 1.64-5.121 1.25-8.75-0.43-3.551-0.58-6.051-0.47-7.5 0.2-1.371 0.47-2.422 0.79-3.121 0.31-0.629 0.62-1.329 0.93-2.04 0.82-1.871 1.25-3.71 1.25-5.46 0-2.43-0.78-4.77-2.34-7.04-0.74-0.929-1.02-2.73-0.78-5.308 0.19-2.5 0.35-5 0.47-7.5 0.08-6.371-0.28-10.313-1.1-11.871-0.74-1.492-1.32-2.352-1.72-2.66-0.31-0.309-0.62-0.551-0.93-0.621-1.49-0.75-2.78-2.821-3.91-6.25-1.05-3.36-2.5-6.059-4.37-8.129-1.88-2.11-3.83-3.832-5.79-5.161-1.99-1.25-3.55-2.261-4.68-2.96-1.18-0.711-2-1.45-2.5-2.192-0.43-0.707-0.9-1.406-1.41-2.027-1.25-1.571-2.89-2.352-4.84-2.352-3.36 0-5.78 0.781-7.35 2.352-0.62 0.859-1.36 2.109-2.18 3.75-1.49 2.687-3.4 4.879-5.79 6.558-2.81 1.762-4.49 4.532-5 8.282-0.31 1.25-0.43 2.5-0.31 3.75 0.2 1.328 0.16 2.968-0.15 4.839-0.24 1.961-0.63 3.75-1.25 5.321-0.55 1.558-0.86 3-0.94 4.371-0.55 4.137-1.88 6.328-4.06 6.558-1.68 0.2-2.66 2.7-2.97 7.5-0.12 2.5-0.08 4.852 0.15 7.04 0.32 2.179 0.71 4.062 1.25 5.621 0.82 2.808 1.1 6.089 0.78 9.839-0.31 3.75-0.31 7.071 0 10 0.51 5.508 1.65 10 3.44 13.442 0.94 1.449 2.23 2.887 3.91 4.379 1.76 1.437 3.47 2.847 5.15 4.219zm9.22-41.879c0.2-1.371 0.67-2.461 1.41-3.282 0.7-0.859 1.25-2.148 1.56-3.91 0.39-1.789 0.55-3.711 0.47-5.777-0.12-2.113-0.16-4.141-0.16-6.09 0-1.883 0.08-3.602 0.32-5.16 0.19-1.481 0.5-2.813 0.93-4.063 1.02-3.05 2.54-4.527 4.54-4.527 3 0 5.07 5.816 6.25 17.5 0.39 3.199 0.62 7.34 0.62 12.34 0 5.078-0.78 9.457-2.34 13.129-1.57 3.629-3.52 5.469-5.78 5.469-2.11 0-4.03-2.43-5.79-7.188-1.56-4.301-2.26-7.113-2.03-8.441z" fill="#e10a69"/><path d="m2852.8 673.98c-1.37 0.122-2.77 1.571-4.22 4.379-1.48 2.813-2.46 6.411-2.97 10.782-0.54 4.449-0.89 7.5-1.09 9.058-0.23 1.571-0.43 2.699-0.62 3.442-0.24 1.449-0.75 2.738-1.57 3.91-0.86 1.129-1.36 1.949-1.56 2.5-0.23 0.929-0.27 3.16-0.16 6.719 0.2 7.5-0.15 12.421-1.09 14.839-0.31 1.129-0.47 2.032-0.47 2.661 0.08 0.699 0.08 1.441 0 2.179 0 0.821-0.27 1.641-0.78 2.5-0.43 0.942-0.9 1.961-1.41 3.133-1.56 3.117-2.34 5.227-2.34 6.398 0 1.45 0.51 3.129 1.56 5 2.07 3.641 3.28 6.141 3.6 7.5 0.39 1.45 0.54 3.29 0.47 5.469v6.723c-0.24 5.707 0.23 9.297 1.4 10.777 0.82 0.711 1.76 1.25 2.81 1.571 1.14 0.312 2.5 0.781 4.07 1.402 3.32 1.129 5.82 1.719 7.5 1.719 1.75 0 3.16-0.469 4.22-1.411 1.01-0.929 2.22-1.519 3.59-1.71 1.33-0.122 2.26-0.122 2.81 0 0.51 0.191 0.98 0.351 1.41 0.46 1.13 0.508 2.11 0.79 2.97 0.79 1.25 0 2.11-0.551 2.65-1.571 0.63-0.929 1.17-1.719 1.72-2.34 0.51-0.629 1.29-0.859 2.35-0.629 1.13 0.321 2.03 0.469 2.65 0.469h1.41c1.44-0.109 2.73-0.078 3.9 0.16 2.07 0.7 3.75 0.391 5-0.937 0.2-0.742 0.82-1.25 1.88-1.563 1.13-0.238 2.07-0.589 2.81-1.089 1.88-0.938 3.17-2.661 3.91-5.161 1.33-4.488 1.56-9.14 0.62-13.91-0.43-1.679-0.78-3.039-1.09-4.058-0.24-0.942-0.43-1.801-0.63-2.5-0.11-0.743-0.23-1.481-0.31-2.192 0-0.617-0.08-1.48-0.15-2.5v-3.117-3.91c0-3.043 0.07-5.434 0.31-7.192 0.62-4.921-1.56-8.429-6.56-10.621-1.68-0.629-2.82-1.25-3.44-1.879-0.74-0.539-1.37-1.398-1.88-2.648-0.43-1.172-1.33-2.621-2.65-4.383-1.37-1.789-3.4-3.199-6.1-4.219-2.61-0.929-4.92-1.789-6.87-2.5-1.99-0.621-3.21-1.48-3.6-2.5-0.74-1.25-0.93-4.289-0.62-9.058 0.39-4.692 0.55-7.652 0.47-8.902-0.12-1.25-0.28-2.309-0.47-3.129-0.24-0.86-0.7-1.52-1.41-2.032-0.86-0.55-1.56-0.781-2.18-0.781-0.55 0-1.1-0.308-1.72-0.937-0.63-0.551-1.21-1.09-1.72-1.719-0.55-0.543-1.06-1.051-1.56-1.563-1.49-1.25-3.09-1.879-4.85-1.879zm9.85 82.04c-0.55-0.629-1.1-2.348-1.72-5.161-0.55-2.808-0.78-5.078-0.78-6.718 0-1.68 0.31-3.2 0.93-4.532 0.71-1.25 1.02-2.308 0.94-3.129 0-0.859-0.12-1.71-0.31-2.648-0.12-0.941-0.16-1.883-0.16-2.812-0.23-2.43-0.08-3.911 0.47-4.54 0.63-0.539 1.29-0.742 2.03-0.621 0.7 0.192 1.45 0.473 2.19 0.782 0.82 0.39 1.56 0.82 2.19 1.25 0.7 0.507 1.4 0.82 2.03 0.941 0.62 0.188 1.01 0.656 1.25 1.398 0.31 0.711 0.78 1.29 1.4 1.719 0.71 0.512 1.18 1.172 1.41 2.031 0.2 0.821 0.39 1.719 0.63 2.661 0.31 0.941 0.31 1.8 0 2.66-0.32 0.82-0.86 2.07-1.57 3.75-0.62 1.558-0.86 2.847-0.62 3.898 0.82 4.071 0.35 6.883-1.41 8.442-2.3 1.328-4.22 1.91-5.78 1.718-1.48-0.121-2.5-0.468-3.12-1.089z" fill="#e10a69"/><path d="m2988.7 779.61c2.89-0.23 5.47-1.679 7.66-4.379 0.39-0.621 0.78-1.21 1.09-1.71 0.39-0.551 0.7-1.18 0.94-1.879 0.62-1.481 0.82-3.551 0.62-6.25-0.23-2.731-0.07-4.961 0.47-6.719 0.51-1.684 0.98-3.281 1.41-4.84 0.94-2.742 0.39-6.371-1.56-10.941-1.49-4.301-3.28-6.801-5.47-7.5l-2.66-0.942c-2.5-0.859-4.69-1.168-6.56-0.929-1.8 0.191-2.97 0.699-3.59 1.562-2 2.5-2.5 5.387-1.57 8.75 0.2 0.699 0.2 1.789 0 3.277-0.23 1.442-1.05 2.379-2.5 2.813-0.74 0.078-1.25 0.387-1.56 0.937-0.23 0.512-0.43 0.942-0.62 1.25-0.12 0.313-0.24 0.512-0.32 0.621-0.11 0.2-0.58 0-1.4-0.621-0.75-0.55-1.17-0.859-1.25-0.937-0.12 0-0.47 0.078-1.1 0.308-0.54 0.2-1.05 0.161-1.56-0.148-0.43-0.312-0.9-0.863-1.41-1.562-1.79-3.051-2.11-7.969-0.93-14.848 0.39-2.113 0.78-4.024 1.09-5.781 0.82-4.371 1.17-7.301 1.09-8.75 0-1.481-0.27-3.051-0.78-4.692-0.54-1.558-1.01-3.117-1.4-4.679-1.18-3.989-1.02-7.348 0.47-10.161 1.64-3.558 2.73-5.629 3.28-6.25 0.93-0.859 2.03-1.211 3.28-1.089 1.25 0.191 2.19 0.82 2.81 1.871 0.7 1.129 1.33 2.339 1.88 3.589 0.62 1.329 1.25 2.579 1.87 3.75 0.7 1.25 1.56 1.961 2.5 2.192 0.94 0.199 2.11 0.199 3.59 0 1.45-0.121 2.43-0.152 2.97-0.152 0.63 0 1.29-0.321 2.03-0.938 0.82-0.633 1.25-2.113 1.25-4.383 0.08-2.179 0.2-3.98 0.32-5.308 0.07-1.25-0.28-2.422-1.1-3.442-0.74-1.051-1.25-1.988-1.56-2.808-0.23-0.743-0.39-1.52-0.47-2.34-0.12-2.11-0.47-3.602-1.09-4.531-0.63-0.942-1.25-1.801-1.88-2.5-0.54-0.629-1.95-0.942-4.22-0.942-2.3 0-4.37-1.058-6.25-3.129-1.79-2.179-3.51-3.121-5.15-2.808-1.68 0.238-2.89 1.211-3.6 2.968-0.62 1.563-2.14 2.379-4.53 2.5-0.62 0.082-1.25 0.231-1.87 0.469-0.63 0.192-1.37 0.352-2.19 0.473-0.74 0.187-1.48 0.539-2.19 1.09-1.99 1.019-3.59 2.738-4.84 5.16-0.74 1.437-1.52 2.648-2.34 3.59-0.75 0.937-1.33 1.879-1.72 2.808-1.25 1.961-1.8 3.789-1.57 5.473 0.63 4.687 0 7.808-1.87 9.379-1.06 0.621-1.56 1.129-1.56 1.558 0 0.391-0.24 1.25-0.63 2.5-0.54 1.762-0.47 3.789 0.16 6.09 0.62 2.391 0.82 4.301 0.62 5.781-0.23 1.571-0.47 3.168-0.78 4.852-0.54 4.258-0.58 7.066-0.15 8.438 0.5 1.32 0.62 3.281 0.31 5.781-0.24 2.57-0.31 4.679-0.31 6.25 0 1.64-0.12 3.789-0.32 6.398-0.23 2.582-0.27 5.473-0.15 8.602 0.7 7.578 3.32 12.808 7.81 15.621 6.76 3.949 11.09 5.816 12.97 5.629 0.51 0 1.17-0.082 2.03-0.16 0.82-0.121 1.6-0.121 2.34 0 0.82 0.199 1.49 0.507 2.03 0.941 0.63 0.387 1.25 0.859 1.88 1.398 2.38 2.071 4.45 2.27 6.25 0.629 1.76-1.988 3.16-3.359 4.22-4.058 1.64-1.25 4.1-2 7.34-2.192z" fill="#e10a69"/><path d="m3033.6 762.11-0.78-33.129c0-14.8 2.07-21.832 6.25-21.089 3.44 0.629 5.04 6.879 4.85 18.75 0 3.441 0.23 5.66 0.78 6.718 0.51 1.02 0.86 1.911 1.09 2.661 0.39 1.871 0.51 4.41 0.31 7.652-0.23 2.066-0.58 5.16-1.09 9.219-0.55 4.14-1.02 8.359-1.41 12.66-0.31 4.371-0.47 8.32-0.47 11.871 0 3.519 0.36 5.699 1.1 6.558 0.7 0.821 1.6 1.29 2.66 1.411 1.13 0.199 2.34 0.199 3.59 0 1.25-0.121 2.38-0.309 3.44-0.621 1.13-0.239 2.07-0.321 2.81-0.321 0.82 0 1.72 0.082 2.66 0.321 1.01 0.312 2.07 0.5 3.12 0.621 1.02 0.078 2.03 0.16 2.97 0.16s1.76-0.391 2.5-1.102c0.82-0.617 1.48-2.301 2.03-5 0.51-2.73 0.86-5.929 1.09-9.679 0.32-3.75 0.47-7.782 0.47-12.04 0-4.179-0.08-8.199-0.15-12.031-0.43-8.359-0.86-13.398-1.25-15.148-0.32-1.801-0.75-3.09-1.25-3.91-0.43-0.743-0.9-1.481-1.41-2.192-0.94-1.359-1.09-3.277-0.47-5.777 0.7-2.5 1.29-4.492 1.72-5.942 0.63-2.421 0.63-4.609 0-6.558-0.55-1.992-0.7-3.871-0.47-5.621 0.51-5-0.08-8.602-1.72-10.781-0.86-1.059-2.11-2.04-3.75-2.969-3.24-1.879-5.62-4.18-7.19-6.879-0.85-1.563-1.79-2.461-2.81-2.652-0.62-0.239-1.52-0.282-2.65-0.161-1.18 0.192-2.46 0.352-3.91 0.469-1.37 0.082-2.66 0.192-3.91 0.313-1.25 0.199-2.14 0.199-2.65 0-0.43-0.121-0.86-0.391-1.25-0.782-0.43-0.429-0.9-0.898-1.41-1.41-2.62-2.578-5.31-2.258-8.12 0.942-0.63 0.629-1.21 1.25-1.72 1.879-0.55 0.699-1.06 1.25-1.57 1.558-0.42 0.313-1.05 0.621-1.87 0.942-0.86 0.39-1.8 0.929-2.81 1.558-4.18 2.582-6.8 6.723-7.82 12.344-0.62 2.699-1.17 6.25-1.56 10.629-0.31 4.371-0.62 7.109-0.94 8.281-0.23 1.129-0.85 2.379-1.87 3.75-0.94 1.438-1.56 2.809-1.87 4.059-0.32 1.25-0.4 2.539-0.16 3.91 0.19 1.328 0.47 2.89 0.78 4.679 0.82 4.692 1.02 8.75 0.62 12.192-0.42 3.519-0.54 6.289-0.31 8.277 0.31 1.961 0.35 3.211 0.16 3.75-0.24 0.512-0.55 1.02-0.94 1.571-0.43 0.5-0.58 1.562-0.47 3.121 0.2 1.558 0.32 3.05 0.32 4.531v4.527c0.31 6.641 1.32 10.672 3.12 12.031 1.45 1.02 2.97 1.61 4.53 1.719 2.38 0.082 4.22 0.512 5.47 1.25 1.25 0.821 2.23 1.492 2.97 2.031 4.88 2.7 7.97 0.711 9.22-5.929 0.7-4.071 1.17-9.813 1.4-17.192z" fill="#e10a69"/><path d="m3125.7 698.36c0.51-0.738 0.71-1.64 0.63-2.66 0-1.051-0.12-2.109-0.31-3.117-0.12-1.062-0.08-2.273 0.15-3.602 0.2-1.359 0.35-2.652 0.47-3.902 0.08-1.168 0.16-2.308 0.16-3.437 0-1.051-0.32-1.95-0.94-2.661-0.63-0.742-1.56-1.359-2.81-1.871-1.25-0.429-2.66-0.738-4.22-0.937-3.67-0.313-6.8 0.199-9.38 1.558-2.5 1.329-4.84 1.758-7.03 1.25-2.19-0.539-3.9-1.011-5.15-1.402-1.18-0.43-2.58-0.859-4.22-1.25-1.57-0.387-3.13-0.547-4.69-0.469-1.56 0-2.93 0.821-4.06 2.5-1.06 1.762-1.64 3.75-1.72 5.942-0.12 2.258 0.19 4.57 0.94 6.871 0.82 2.379 1.13 5.039 0.93 7.969-0.11 3.007-0.27 5.55-0.47 7.66-0.23 2.179-0.23 4.058 0 5.621 0.4 3.629-0.07 6.168-1.4 7.66-1.06 1.25-1.56 2.688-1.56 4.367 0 1.762 0.03 3.172 0.15 4.223 0.08 1.129 0.39 2.066 0.94 2.808 0.62 0.821 0.98 1.489 1.09 2.04 0.2 0.5 0.2 1.441 0 2.812-0.74 5.617-1.01 9.918-0.78 12.969 0.2 3 0.16 5.621-0.15 7.808-0.32 2.192-0.43 3.942-0.32 5.313 0.2 1.449 0.08 2.66-0.31 3.598-0.31 1.011-0.43 1.75-0.31 2.179 0.19 0.391 0.19 1.02 0 1.883-0.24 0.816-0.43 1.758-0.63 2.809-0.54 2.89-0.7 4.879-0.47 5.941 0.2 1.129 0.67 2.379 1.41 3.75 0.7 1.438 1.6 2.258 2.66 2.5 1.13 0.309 1.79 0.539 2.03 0.777 0.19 0.192 0.66 0.473 1.4 0.782 2.07 0.629 3.6 0.66 4.54 0.16 1.01-0.551 1.91-0.86 2.65-0.942h2.5c0.82 0.082 1.6 0.231 2.35 0.473l1.71 0.309c2.07 0.629 3.64 0.507 4.69-0.309 0.71-0.742 1.17-1.332 1.41-1.723 0.31-0.308 0.39-0.898 0.31-1.718-0.23-0.743-0.16-1.371 0.16-1.871 0.39-0.43 0.54-1.098 0.47-2.04-0.12-0.929-0.16-1.679-0.16-2.179 0.08-0.43 0.19-0.86 0.31-1.25 0.2-1.063 0.08-2.27-0.31-3.602-0.31-1.359-0.55-2.258-0.63-2.648-0.11-0.43-0.15-0.86-0.15-1.25 0-1.25-0.24-2.461-0.63-3.602-0.31-1.168-0.54-2.109-0.62-2.808v-2.5-3.282c0-1.168-0.12-2.621-0.31-4.379-0.12-1.789-0.24-3.859-0.32-6.25-0.11-2.421-0.23-4.8-0.31-7.179-0.43-6.492-0.94-10.59-1.56-12.352-1.56-0.929-1.8-2.969-0.63-6.09l0.94-3.129c1.02-2.929 1.56-5.859 1.56-8.75 0-2.808-0.27-5.539-0.78-8.121 2.81-1.558 4.77-2.418 5.94-2.5 2.81-0.429 5.35-0.078 7.66 1.09 2.38 1.25 4.06 1.762 5 1.571 1.01-0.239 1.75-0.711 2.18-1.411z" fill="#e10a69"/><path d="m3126 783.67c2.19-0.231 4.11-0.313 5.79-0.313 1.75 0.082 4.37 0.082 7.81 0 5.62-0.308 9.61 0.082 12.03 1.25 4.77 2.379 8.63 2.661 11.56 0.782 1.33-0.743 2.66-1.211 3.91-1.411 1.25-0.23 3.05 0.36 5.47 1.719 2.5 1.141 4.57 1.41 6.25 0.781 1.64-0.621 2.85-1.398 3.59-2.339 0.82-0.86 1.33-2.34 1.56-4.532 0.32-2.187 0.36-4.379 0.16-6.558-0.12-2.11-0.31-4.071-0.63-5.942-0.54-5-0.74-8.277-0.62-9.839 0.08-1.571 0.23-3.211 0.47-4.848 0.31-1.563 0.39-3.121 0.31-4.692-0.23-3.859-1.8-6.05-4.69-6.558-2.18-0.313-3.75 0.199-4.68 1.558-0.94 1.329-1.72 2.821-2.35 4.379-0.62 1.641-1.33 3.121-2.03 4.371-0.62 1.25-1.52 1.719-2.66 1.411-1.17-0.309-1.87-1.641-2.18-3.911-0.32-2.179-0.43-4.8-0.32-7.808 0.08-2.934 0.32-6.012 0.63-9.223 0.31-3.117 0.51-5.777 0.62-7.969 0.08-2.179 0.2-4.449 0.32-6.71 0.08-2.188 0.15-4.301 0.15-6.25 0-4.18-0.58-7.04-1.72-8.598-0.54-0.863-0.78-1.801-0.78-2.813 0-1.058 0.08-2.187 0.32-3.437 0.19-1.172 0.46-2.301 0.78-3.442 0.31-1.171 0.47-2.57 0.47-4.21 0-3.989-1.8-6.719-5.32-8.29-1.25-0.539-2.46-1.519-3.59-2.96-1.06-1.329-1.84-2.231-2.34-2.661-0.55-0.39-1.18-0.507-1.88-0.308-0.74 0.109-1.33 0.429-1.72 0.929-0.31 0.551-0.58 1.098-0.78 1.719-0.62 1.571-1.48 2.539-2.5 2.973-1.37 0.308-2.15 1.406-2.34 3.277-0.24 1.879-0.39 3.481-0.47 4.852 0 1.437-0.12 3.16-0.31 5.148-0.24 2.071-0.9 3.75-2.04 5-1.05 1.332-1.95 2.192-2.65 2.5-0.63 0.321-1.06 1.141-1.25 2.5-0.12 1.332-0.08 2.699 0.15 4.071 0.2 1.32 0.51 2.851 0.94 4.531 1.13 4.758 1.76 9.25 1.88 13.429 0.31 7.821 0.31 12.969 0 15.469-0.43 5.082-1.8 7.66-4.07 7.66-1.17-0.121-1.99-0.629-2.5-1.558-0.54-0.942-1.05-2.031-1.56-3.281-1.36-3.25-3.86-4.141-7.5-2.661-1.25 0.621-2.11 1.563-2.5 2.813-0.31 1.25-0.54 2.699-0.62 4.379 0 1.75-0.08 3.59-0.16 5.469 0 1.949-0.31 3.781-0.94 5.46-0.62 1.758-1.25 3.442-1.87 5-0.55 1.571-0.74 3.129-0.63 4.692 0.08 1.558 0.47 3.047 1.1 4.527 0.62 1.449 0.78 2.891 0.47 4.383-0.24 1.438 0.07 2.848 0.93 4.219 0.82 1.437 2.35 2.07 4.53 1.871z" fill="#e10a69"/><path d="m3216.7 762.11-0.78-33.129c0-14.8 2.07-21.832 6.25-21.089 3.44 0.629 5.04 6.879 4.84 18.75 0 3.441 0.24 5.66 0.78 6.718 0.51 1.02 0.86 1.911 1.1 2.661 0.39 1.871 0.51 4.41 0.31 7.652-0.23 2.066-0.59 5.16-1.09 9.219-0.55 4.14-1.02 8.359-1.41 12.66-0.31 4.371-0.47 8.32-0.47 11.871 0 3.519 0.35 5.699 1.09 6.558 0.71 0.821 1.61 1.29 2.66 1.411 1.13 0.199 2.34 0.199 3.59 0 1.25-0.121 2.39-0.309 3.44-0.621 1.13-0.239 2.07-0.321 2.81-0.321 0.82 0 1.72 0.082 2.66 0.321 1.02 0.312 2.07 0.5 3.13 0.621 1.01 0.078 2.03 0.16 2.96 0.16 0.94 0 1.76-0.391 2.5-1.102 0.83-0.617 1.49-2.301 2.04-5 0.5-2.73 0.86-5.929 1.09-9.679 0.31-3.75 0.47-7.782 0.47-12.04 0-4.179-0.08-8.199-0.16-12.031-0.43-8.359-0.86-13.398-1.25-15.148-0.31-1.801-0.74-3.09-1.25-3.91-0.43-0.743-0.9-1.481-1.4-2.192-0.94-1.359-1.1-3.277-0.47-5.777 0.7-2.5 1.29-4.492 1.72-5.942 0.62-2.421 0.62-4.609 0-6.558-0.55-1.992-0.71-3.871-0.47-5.621 0.51-5-0.08-8.602-1.72-10.781-0.86-1.059-2.11-2.04-3.75-2.969-3.24-1.879-5.63-4.18-7.19-6.879-0.86-1.563-1.8-2.461-2.81-2.652-0.63-0.239-1.52-0.282-2.66-0.161-1.17 0.192-2.46 0.352-3.9 0.469-1.37 0.082-2.66 0.192-3.91 0.313-1.25 0.199-2.15 0.199-2.66 0-0.43-0.121-0.86-0.391-1.25-0.782-0.43-0.429-0.9-0.898-1.4-1.41-2.62-2.578-5.32-2.258-8.13 0.942-0.62 0.629-1.21 1.25-1.72 1.879-0.54 0.699-1.05 1.25-1.56 1.558-0.43 0.313-1.05 0.621-1.87 0.942-0.86 0.39-1.8 0.929-2.82 1.558-4.18 2.582-6.79 6.723-7.81 12.344-0.62 2.699-1.17 6.25-1.56 10.629-0.31 4.371-0.63 7.109-0.94 8.281-0.23 1.129-0.86 2.379-1.87 3.75-0.94 1.438-1.57 2.809-1.88 4.059s-0.39 2.539-0.16 3.91c0.2 1.328 0.47 2.89 0.79 4.679 0.82 4.692 1.01 8.75 0.62 12.192-0.43 3.519-0.55 6.289-0.31 8.277 0.31 1.961 0.35 3.211 0.15 3.75-0.23 0.512-0.54 1.02-0.93 1.571-0.43 0.5-0.59 1.562-0.47 3.121 0.19 1.558 0.31 3.05 0.31 4.531v4.527c0.31 6.641 1.33 10.672 3.13 12.031 1.44 1.02 2.96 1.61 4.53 1.719 2.38 0.082 4.22 0.512 5.47 1.25 1.25 0.821 2.22 1.492 2.96 2.031 4.89 2.7 7.97 0.711 9.22-5.929 0.71-4.071 1.18-9.813 1.41-17.192z" fill="#e10a69"/><path d="m3302.3 781.48 4.68 0.321c3.32 0 5.67-0.59 7.03-1.719 1.45-1.062 2.54-2.031 3.29-2.973 0.7-0.859 1.32-1.718 1.87-2.66 0.63-0.859 1.45-1.789 2.5-2.808 1.02-0.942 1.56-2.11 1.56-3.442 0-1.25 0.35-2.301 1.1-3.117 0.7-0.742 1.09-1.992 1.09-3.75 0-1.801-0.08-3.523-0.16-5.16 0-1.563-0.15-2.891-0.46-3.902-0.32-1.059-0.47-2.11-0.47-3.129 0-0.942 0.19-1.84 0.62-2.661 0.51-0.859 0.55-2.89 0.16-6.089-0.31-3.121-0.86-6.332-1.56-9.532-0.75-3.238-1.68-6.058-2.82-8.437-2.42-4.371-6.21-7.813-11.4-10.313 0.39-1.25 0.93-2.621 1.56-4.058 0.7-1.371 1.33-2.781 1.87-4.219 1.25-3.562 1.88-6.172 1.88-7.812 0-1.571 0.04-2.739 0.16-3.438 0.19-0.742 0.39-1.332 0.62-1.723 0.2-0.429 0.47-0.738 0.78-0.937 0.39-0.231 0.94-0.582 1.56-1.094 0.71-0.547 1.25-1.406 1.57-2.656 0.39-1.25 0.62-2.621 0.62-4.063 0-3.129-0.39-5.078-1.09-5.781-0.74-0.707-1.53-1.168-2.35-1.406-0.86-0.192-1.68-0.352-2.5-0.473-2.3-0.308-3.71-0.039-4.21 0.781-0.86 0.86-1.33 1.649-1.41 2.5 0 0.821-0.16 1.571-0.47 2.192-0.23 0.629-0.62 0.976-1.25 1.098-0.62 0.191-1.05 0.82-1.25 1.871-0.23 1.019-0.59 1.718-1.09 2.031-0.43 0.387-1.33 0.508-2.66 0.308-2.42-0.539-4.22 0.942-5.47 4.379-0.23 0.821-0.47 1.871-0.78 3.121s-0.7 2.43-1.09 3.602c-0.75 2.887-1.64 4.449-2.66 4.688-1.05 0.191-1.84 0.031-2.34-0.469-0.43-0.43-0.78-1.063-1.1-1.879-0.23-0.863-0.31-1.793-0.31-2.813 0-1.058 0.08-2.148 0.31-3.277 0.32-1.172 0.35-2.152 0.16-2.973-0.24-0.738-0.55-1.371-0.94-1.879-0.31-0.539-0.62-0.929-0.94-1.25-0.86-0.539-1.36-1.519-1.56-2.96-0.12-1.489-0.31-2.739-0.62-3.75-0.55-2.739-1.33-4.379-2.35-5-0.93-0.711-1.95-1.141-2.97-1.25-0.93-0.2-1.87-0.2-2.81 0-2.5 0.539-4.06 1.402-4.69 2.652-0.54 1.129-0.86 2.027-0.93 2.656-0.12 0.621-0.16 1.25-0.16 1.871 0.08 0.629 0.2 1.25 0.31 1.879 0.08 0.703 0.08 1.563 0 2.5 0 0.942-0.23 2.192-0.62 3.75-0.31 1.563-0.55 3.363-0.63 5.473l-0.15 3.898c0 0.321 0.31 0.942 0.93 1.883 0.71 0.938 0.94 2.027 0.63 3.277-0.24 1.25-0.78 2.032-1.72 2.34-0.86 0.321-1.25 0.711-1.25 1.25 0 0.512 0.08 1.723 0.31 3.602 0.2 1.949 0.16 4.41-0.15 7.34-0.32 2.89-0.55 5.507-0.63 7.808-0.43 4.891-1.33 7.66-2.65 8.281-1.25 0.629-2 1.411-2.19 2.352-0.24 0.938-0.24 1.949 0 3.117 0.19 1.141 0.39 2.582 0.62 4.383 0.2 1.758 0.47 3.508 0.78 5.309 0.32 1.879 0.55 3.589 0.79 5.16 0.31 1.558 0.46 2.578 0.46 3.121 0.08 0.629 0.16 1.168 0.16 1.719v1.558c-0.23 1.571-0.23 2.891 0 4.071 0.31 2.261 0.35 3.902 0.16 4.839-0.12 0.942 0.07 2.34 0.62 4.223 0.51 1.867 0.94 3.156 1.25 3.898 0.39 0.821 1.13 1.45 2.19 1.879 1.13 0.391 2.23 0.981 3.28 1.723 1.02 0.699 1.95 1.438 2.81 2.188 0.94 0.699 1.72 1.402 2.35 2.031 0.7 0.621 1.56 1.09 2.5 1.398 2.81 0.512 4.88 0.551 6.25 0.16 1.32-0.429 2.26-0.898 2.81-1.41 0.62-0.429 1.33-0.898 2.19-1.398 0.82-0.551 1.72-0.903 2.65-1.102 0.94-0.23 1.76-0.308 2.5-0.308 2.07-0.231 3.32-0.551 3.75-0.942 0.39-0.308 0.94-0.469 1.57-0.469zm-12.19-40.781 0.94-13.429c0-0.86-0.08-1.68-0.16-2.5-0.12-0.86-0.24-1.649-0.31-2.348-0.12-1.481 0.39-2.34 1.56-2.652 0.94-0.122 1.72 0.191 2.34 0.929 0.63 0.711 1.14 1.723 1.57 2.973 1.25 2.379 1.64 3.949 1.25 4.687-0.86 0.942-1.1 1.762-0.79 2.5 0.4 0.7 1.18 2.11 2.35 4.223 1.13 2.188 1.95 4.059 2.5 5.617 0.51 1.571 0.62 3.211 0.31 5-0.31 1.883-0.47 3.172-0.47 3.91v1.563c0 0.816-0.39 1.558-1.09 2.187-0.74 0.621-1.25 0.942-1.56 0.942-0.24 0.078-0.43 0.148-0.63 0.148-0.94-0.23-1.84-0.148-2.66 0.16-0.74 0.313-1.48 0.391-2.18 0.313-0.63 0-1.41-0.434-2.35-1.25-0.86-0.863-1.32-1.723-1.4-2.652-0.12-0.938-0.12-2.04 0-3.29 0.5-3.429 0.78-5.781 0.78-7.031z" fill="#e10a69"/><path d="m3335.6 703.67-0.15 7.5c0 1.328 0.04 2.578 0.15 3.75 0.08 1.328 0 2.887-0.31 4.687-0.54 3.2-0.78 5.551-0.78 7.032 0.08 1.558 0.08 2.808 0 3.75 0 0.941-0.12 1.8-0.31 2.66-0.24 1.129-0.9 2.969-2.03 5.469-1.17 2.57-1.72 5.351-1.72 8.281 0 2.89 0.62 5.23 1.87 7.031 1.25 1.758 1.72 3.508 1.41 5.309-0.31 1.879-0.59 3.828-0.78 5.941-0.12 2.188-0.12 4.367 0 6.559 0.08 2.191 0.55 4.3 1.41 6.41 2.18 4.879 6.48 7.258 12.96 7.179 3.95-0.109 7.39-0.539 10.32-1.25 3-0.742 5.19-1.05 6.56-0.929 1.33 0.07 3.44 0.621 6.25 1.558 4.06 1.563 7.34 1.442 9.84-0.308 0.63-0.551 1.25-0.903 1.88-1.102 0.7-0.23 1.29-0.578 1.72-1.09 1.64-1.879 2.18-5.937 1.56-12.187-0.24-1.871-0.43-3.75-0.63-5.621-0.54-4.379-0.54-7.66 0-9.852 0.51-2.109 0.78-3.98 0.78-5.617 0.08-1.562 0.04-2.973-0.15-4.223-0.63-2.808-1.8-4.218-3.44-4.218-1.48 0.078-2.5 0.55-3.12 1.41-0.63 0.82-1.18 1.719-1.57 2.648-0.43 1.02-0.86 1.961-1.25 2.821-0.43 0.82-1.36 1.25-2.81 1.25-4.3 0-7.15 0.46-8.59 1.402-1.49 0.937-2.74 1.449-3.75 1.558-1.06 0.2-2.11 0.079-3.13-0.308-1.99-0.863-3.2-2.461-3.59-4.84-0.31-2.312-0.55-4.344-0.63-6.102-0.11-1.789-0.11-3.39 0-4.839 0.2-3.442 0.86-5.391 2.03-5.782 1.14-0.429 2.08-0.468 2.82-0.16 0.82 0.321 1.6 0.711 2.34 1.25 2.38 1.571 4.77 2.27 7.19 2.192 2.5 0 4.37-1.012 5.62-2.969 1.25-1.992 1.76-3.871 1.57-5.621-0.24-1.801-0.43-3.563-0.63-5.321-0.12-1.789-0.27-3.429-0.47-5-1.48-6.05-4.33-7.261-8.59-3.589-5.55 0.39-8.99-0.27-10.31-2.032-0.32-0.429-0.63-1.41-0.94-2.968-0.31-1.559-0.39-3.243-0.16-5 0.51-4.61 2.7-7.032 6.56-7.34 2.58-0.242 4.93 0.07 7.04 0.929 2.07 0.942 3.43 1.918 4.06 2.969 0.62 1.141 1.33 1.762 2.19 1.883 0.93 0.188 1.71 0.348 2.34 0.469 0.7 0.187 1.41 0.308 2.03 0.308 0.7 0 1.45-0.121 2.19-0.308 1.76-0.551 2.81-1.879 3.12-4.071 0.32-2.179 0.04-4.179-0.78-5.929-0.74-1.68-1.21-3.25-1.4-4.692-0.24-1.488-0.43-2.578-0.63-3.281-0.23-0.629-0.78-1.488-1.72-2.5-0.94-0.937-1.68-1.797-2.18-2.5-0.55-0.707-1.41-0.547-2.66 0.473-2.11 1.64-4.65 0.66-7.66-2.973-0.86-1.019-1.72-1.797-2.65-2.348-0.86-0.5-2.15-0.699-3.91-0.621-1.88 0.121-3.4 0.621-4.53 1.563-1.06 0.859-1.99 1.68-2.81 2.5-1.49 1.879-4.03 2.578-7.66 2.187-2.19-0.308-3.98 0.551-5.31 2.661-0.31 0.308-0.55 0.82-0.63 1.558-0.11 0.82-0.27 1.762-0.47 2.813-0.74 2.5-1.36 4.097-1.87 4.839-0.55 0.711-0.86 1.641-0.94 2.821 0 1.25-0.12 2.5-0.31 3.75-0.24 1.328-0.39 2.34-0.47 2.969-0.12 0.621-0.08 1.32 0.16 2.179 0.31 0.942 0.46 1.922 0.46 2.973z" fill="#e10a69"/></g></g></svg>
